<svg version="1.1" xmlns="http://www.w3.org/2000/svg" viewBox="0 0 659.1824035550912 697.8114977306027" width="659.1824035550912" height="697.8114977306027">
  <!-- svg-source:excalidraw -->
  
  <defs>
    <style class="style-fonts">
      @font-face {
        font-family: "Virgil";
        src: url("https://excalidraw.com/Virgil.woff2");
      }
      @font-face {
        font-family: "Cascadia";
        src: url("https://excalidraw.com/Cascadia.woff2");
      }
      @font-face {
        font-family: "Assistant";
        src: url("https://excalidraw.com/Assistant-Regular.woff2");
      }
    </style>
    <clipPath id="YjE1SmXw_JE61cPw30XIt">
            <rect transform="translate(0 0) rotate(0 329.5912017775456 348.90574886530135)" width="659.1824035550912" height="697.8114977306027">
          </rect>
        </clipPath>
  </defs>
  <g clip-path="url(#YjE1SmXw_JE61cPw30XIt)"><g stroke-linecap="round" transform="translate(519.3781815595203 219.65130029160946) rotate(0 58.330921746100444 138.73300307180625)"><path d="M29.17 0 C51.43 -0.68, 61.6 -3.01, 87.5 0 C112.23 -1.13, 118.28 14.7, 116.66 29.17 C114.88 96.3, 111.69 170.26, 116.66 248.3 C120.45 267.7, 108.72 282.7, 87.5 277.47 C66.99 273.98, 58.16 275.12, 29.17 277.47 C8.19 274.25, 5.37 266.09, 0 248.3 C-2.61 176.72, 6.27 99.64, 0 29.17 C-3.13 6.66, 14.47 -1.39, 29.17 0" stroke="none" stroke-width="0" fill="#ffec99"></path><path d="M29.17 0 C50.43 -0.22, 67.21 -1.92, 87.5 0 M29.17 0 C49.27 2.23, 73.77 0.66, 87.5 0 M87.5 0 C105.29 -3.14, 114.4 8.75, 116.66 29.17 M87.5 0 C103.29 -3.6, 120.65 7.01, 116.66 29.17 M116.66 29.17 C115.2 94.1, 118.69 156.16, 116.66 248.3 M116.66 29.17 C116.47 84.99, 115.15 141.93, 116.66 248.3 M116.66 248.3 C117.34 271.32, 109.35 278.1, 87.5 277.47 M116.66 248.3 C115.21 264.5, 102.6 281.47, 87.5 277.47 M87.5 277.47 C67.43 280.39, 52.84 280.81, 29.17 277.47 M87.5 277.47 C67.85 278.76, 47.46 280.23, 29.17 277.47 M29.17 277.47 C9.35 277.8, 0.32 265.32, 0 248.3 M29.17 277.47 C5.2 281.82, -2.68 270.92, 0 248.3 M0 248.3 C-1.32 186.16, 2.92 128.29, 0 29.17 M0 248.3 C3.83 192.55, 5.24 140.27, 0 29.17 M0 29.17 C-3.83 11.52, 6.02 -3.6, 29.17 0 M0 29.17 C2.31 12.76, 11.85 -4.25, 29.17 0" stroke="#2f9e44" stroke-width="2" fill="none"></path></g></g><g clip-path="url(#YjE1SmXw_JE61cPw30XIt)"><g stroke-linecap="round" transform="translate(182.0047422712637 74.61225162563142) rotate(0 145.3543509456881 279.9884243812826)"><path d="M32 0 C106.81 1.74, 178.07 3.88, 258.71 0 C279.29 3.73, 287.13 9.51, 290.71 32 C296.33 137.14, 296.48 241.14, 290.71 527.98 C287.62 554.26, 284.81 564.97, 258.71 559.98 C209.13 558.38, 156.49 562.08, 32 559.98 C15.01 561.44, -1.83 550.74, 0 527.98 C-0.86 393.24, -0.37 256.41, 0 32 C-3.13 14.63, 14.57 4.91, 32 0" stroke="none" stroke-width="0" fill="#ffec99"></path><path d="M32 0 C76.96 0.32, 125.63 0.25, 258.71 0 M32 0 C79.89 -3.07, 125.67 -0.41, 258.71 0 M258.71 0 C282.51 2.94, 290.99 9.16, 290.71 32 M258.71 0 C283.31 2.07, 287.4 9.12, 290.71 32 M290.71 32 C288.03 207.2, 287.62 383.05, 290.71 527.98 M290.71 32 C295.01 183.05, 293.86 335.45, 290.71 527.98 M290.71 527.98 C294.53 550.67, 281.88 559.24, 258.71 559.98 M290.71 527.98 C291.09 550.59, 280.36 556.49, 258.71 559.98 M258.71 559.98 C178.63 559.2, 96.23 559.21, 32 559.98 M258.71 559.98 C206.29 559.42, 155.22 558.37, 32 559.98 M32 559.98 C10.21 560.82, -0.97 552.11, 0 527.98 M32 559.98 C12.24 558.83, 0.09 546.13, 0 527.98 M0 527.98 C2.62 332.68, 2.45 140.44, 0 32 M0 527.98 C-0.18 337.5, -1.38 147.34, 0 32 M0 32 C-1.07 12.73, 6.7 -0.84, 32 0 M0 32 C0.65 14.53, 11.85 -2.65, 32 0" stroke="#1971c2" stroke-width="2" fill="none"></path></g></g><g clip-path="url(#YjE1SmXw_JE61cPw30XIt)"><g stroke-linecap="round" transform="translate(17.10164998363848 119.38517534425864) rotate(0 58.330921746100444 233.323686984402)"><path d="M29.17 0 C37.23 1.31, 57.88 4.66, 87.5 0 C101.71 -0.02, 120.16 13.18, 116.66 29.17 C119.3 183.04, 114.88 333.1, 116.66 437.48 C119.66 453.57, 111.77 465.75, 87.5 466.65 C70.83 471.88, 52.56 472.63, 29.17 466.65 C4.4 464.32, -1.32 462.28, 0 437.48 C-2.65 301.97, -2.7 162.38, 0 29.17 C3.08 9.86, 5.08 0.63, 29.17 0" stroke="none" stroke-width="0" fill="#ffec99"></path><path d="M29.17 0 C52.14 -3.28, 69.16 -3.34, 87.5 0 M29.17 0 C51.22 -0.05, 74.55 -1.72, 87.5 0 M87.5 0 C108.8 3.22, 114.89 12.84, 116.66 29.17 M87.5 0 C105.86 1.34, 119.93 9.89, 116.66 29.17 M116.66 29.17 C117.4 143.53, 121.31 256.47, 116.66 437.48 M116.66 29.17 C114.81 176.28, 115.18 322.88, 116.66 437.48 M116.66 437.48 C116.33 460.56, 105.13 465.28, 87.5 466.65 M116.66 437.48 C112.9 454.22, 103.26 469.76, 87.5 466.65 M87.5 466.65 C73.79 464.84, 55.38 466.61, 29.17 466.65 M87.5 466.65 C65.49 466.47, 43.51 465.51, 29.17 466.65 M29.17 466.65 C7.34 466.21, 0.83 455.53, 0 437.48 M29.17 466.65 C6.61 469.65, 2.34 459.6, 0 437.48 M0 437.48 C1.46 355.48, 2.54 271.63, 0 29.17 M0 437.48 C1.63 338.25, 0.1 239.08, 0 29.17 M0 29.17 C-3.9 7.83, 8.16 2.48, 29.17 0 M0 29.17 C-4.1 5.51, 6.42 -3.82, 29.17 0" stroke="#e03131" stroke-width="2" fill="none"></path></g></g><g clip-path="url(#YjE1SmXw_JE61cPw30XIt)"><g stroke-linecap="round" transform="translate(36.83984684611414 162.51389696091792) rotate(0 37.5 37.5)"><path d="M26 1.65 C32.77 -1.05, 43.38 -1.4, 50.23 0.69 C57.08 2.78, 62.73 8.37, 67.09 14.16 C71.46 19.96, 76.01 28.12, 76.4 35.46 C76.8 42.79, 73.71 51.65, 69.46 58.2 C65.2 64.75, 58.06 72.01, 50.88 74.75 C43.7 77.48, 33.4 76.78, 26.37 74.62 C19.35 72.46, 13.26 67.89, 8.73 61.79 C4.21 55.69, -0.25 45.62, -0.76 37.99 C-1.28 30.36, -2.54 21.8, 5.63 16 C13.8 10.19, 38.02 3.72, 48.23 3.16 C58.44 2.6, 67.41 12.12, 66.89 12.65 M47.5 0.2 C54.59 0.75, 58.99 7.5, 63.39 12.63 C67.78 17.77, 73.01 24.16, 73.88 31.03 C74.74 37.9, 71.54 47.29, 68.58 53.85 C65.61 60.41, 62.14 66.49, 56.06 70.4 C49.99 74.31, 39.44 78.38, 32.11 77.29 C24.78 76.2, 17.03 69.46, 12.1 63.86 C7.17 58.27, 4.06 51.32, 2.54 43.72 C1.02 36.12, -0.17 24.76, 2.98 18.25 C6.13 11.74, 14.61 8.06, 21.44 4.65 C28.27 1.24, 39.95 -1.53, 43.96 -2.23 C47.96 -2.93, 45.22 -0.93, 45.45 0.44" stroke="none" stroke-width="0" fill="#ffc9c9"></path><path d="M49.25 0.47 C56.69 1.63, 64.15 8.02, 68.74 14.05 C73.33 20.09, 76.73 29.01, 76.79 36.69 C76.84 44.37, 73.32 53.93, 69.07 60.13 C64.83 66.34, 58.3 71.96, 51.32 73.92 C44.34 75.88, 34.36 73.96, 27.19 71.9 C20.02 69.85, 12.89 66.98, 8.32 61.59 C3.74 56.19, 0.16 47.01, -0.27 39.53 C-0.7 32.04, 1.44 22.85, 5.75 16.69 C10.06 10.52, 16.27 3.8, 25.6 2.52 C34.94 1.24, 54.33 5.3, 61.78 9.01 C69.22 12.72, 70.84 24.09, 70.3 24.78 M62.96 5.49 C68.32 9.37, 70.08 21.25, 71.69 29.17 C73.3 37.09, 74.53 46.87, 72.6 53 C70.68 59.12, 65.71 61.99, 60.14 65.9 C54.57 69.8, 46.56 75.98, 39.18 76.43 C31.8 76.87, 22.52 73.67, 15.85 68.56 C9.18 63.45, 1.36 53.02, -0.84 45.76 C-3.03 38.49, -0.38 31.77, 2.67 24.97 C5.73 18.17, 11.07 9.12, 17.49 4.97 C23.92 0.82, 33.99 -0.53, 41.24 0.08 C48.48 0.69, 57.87 7.55, 60.96 8.64 C64.05 9.73, 59.96 6.51, 59.77 6.61" stroke="#1e1e1e" stroke-width="2" fill="none"></path></g></g><g clip-path="url(#YjE1SmXw_JE61cPw30XIt)"><g stroke-linecap="round"><g transform="translate(113.58414757448577 197.58014071200614) rotate(0 51.07896931280152 -23.017066418731474)"><path d="M0 0 C17.03 -7.67, 85.13 -38.36, 102.16 -46.03 M0 0 C17.03 -7.67, 85.13 -38.36, 102.16 -46.03" stroke="#1e1e1e" stroke-width="2" fill="none"></path></g></g><mask></mask></g><g clip-path="url(#YjE1SmXw_JE61cPw30XIt)"><g stroke-linecap="round"><g transform="translate(115.47596125273776 195.68832703375438) rotate(0 51.70957387221881 35.94445988678626)"><path d="M0 0 C17.24 11.98, 86.18 59.91, 103.42 71.89 M0 0 C17.24 11.98, 86.18 59.91, 103.42 71.89" stroke="#1e1e1e" stroke-width="2" fill="none"></path></g></g><mask></mask></g><g clip-path="url(#YjE1SmXw_JE61cPw30XIt)"><g stroke-linecap="round"><g transform="translate(114.84535669332035 194.42711791491956) rotate(0 55.17789894901398 104.36505458356373)"><path d="M0 0 C18.39 34.79, 91.96 173.94, 110.36 208.73 M0 0 C18.39 34.79, 91.96 173.94, 110.36 208.73" stroke="#1e1e1e" stroke-width="2" fill="none"></path></g></g><mask></mask></g><g clip-path="url(#YjE1SmXw_JE61cPw30XIt)"><g stroke-linecap="round"><g transform="translate(115.47596125273776 196.94953615258873) rotate(0 57.38501490697445 172.15504472092357)"><path d="M0 0 C19.13 57.39, 95.64 286.93, 114.77 344.31 M0 0 C19.13 57.39, 95.64 286.93, 114.77 344.31" stroke="#1e1e1e" stroke-width="2" fill="none"></path></g></g><mask></mask></g><g clip-path="url(#YjE1SmXw_JE61cPw30XIt)"><g stroke-linecap="round"><g transform="translate(112.95354301506859 345.1416076156552) rotate(0 55.80850350843127 -90.80705655609154)"><path d="M0 0 C18.6 -30.27, 93.01 -151.35, 111.62 -181.61 M0 0 C18.6 -30.27, 93.01 -151.35, 111.62 -181.61" stroke="#1e1e1e" stroke-width="2" fill="none"></path></g></g><mask></mask></g><g clip-path="url(#YjE1SmXw_JE61cPw30XIt)"><g stroke-linecap="round"><g transform="translate(112.32293845565118 340.7273756997338) rotate(0 56.439108067848565 -18.60283450281031)"><path d="M0 0 C18.81 -6.2, 94.07 -31, 112.88 -37.21 M0 0 C18.81 -6.2, 94.07 -31, 112.88 -37.21" stroke="#1e1e1e" stroke-width="2" fill="none"></path></g></g><mask></mask></g><g clip-path="url(#YjE1SmXw_JE61cPw30XIt)"><g stroke-linecap="round"><g transform="translate(115.47596125273776 338.835562021482) rotate(0 52.340178431636105 42.565807760667894)"><path d="M0 0 C17.45 14.19, 87.23 70.94, 104.68 85.13 M0 0 C17.45 14.19, 87.23 70.94, 104.68 85.13" stroke="#1e1e1e" stroke-width="2" fill="none"></path></g></g><mask></mask></g><g clip-path="url(#YjE1SmXw_JE61cPw30XIt)"><g stroke-linecap="round"><g transform="translate(116.73717037157235 341.3579802591512) rotate(0 52.024876151927515 107.20277510094138)"><path d="M0 0 C17.34 35.73, 86.71 178.67, 104.05 214.41 M0 0 C17.34 35.73, 86.71 178.67, 104.05 214.41" stroke="#1e1e1e" stroke-width="2" fill="none"></path></g></g><mask></mask></g><g clip-path="url(#YjE1SmXw_JE61cPw30XIt)"><g stroke-linecap="round"><g transform="translate(107.27810198031284 496.48670187580774) rotate(0 62.114549102604315 -163.32658088908147)"><path d="M0 0 C20.7 -54.44, 103.52 -272.21, 124.23 -326.65 M0 0 C20.7 -54.44, 103.52 -272.21, 124.23 -326.65" stroke="#1e1e1e" stroke-width="2" fill="none"></path></g></g><mask></mask></g><g clip-path="url(#YjE1SmXw_JE61cPw30XIt)"><g stroke-linecap="round"><g transform="translate(106.01689286147825 493.96428363813857) rotate(0 63.3757582214389 -92.38356795463483)"><path d="M0 0 C21.13 -30.79, 105.63 -153.97, 126.75 -184.77 M0 0 C21.13 -30.79, 105.63 -153.97, 126.75 -184.77" stroke="#1e1e1e" stroke-width="2" fill="none"></path></g></g><mask></mask></g><g clip-path="url(#YjE1SmXw_JE61cPw30XIt)"><g stroke-linecap="round"><g transform="translate(107.27810198031284 492.07246995988635) rotate(0 59.59213086493514 -22.70176413902277)"><path d="M0 0 C19.86 -7.57, 99.32 -37.84, 119.18 -45.4 M0 0 C19.86 -7.57, 99.32 -37.84, 119.18 -45.4" stroke="#1e1e1e" stroke-width="2" fill="none"></path></g></g><mask></mask></g><g clip-path="url(#YjE1SmXw_JE61cPw30XIt)"><g stroke-linecap="round"><g transform="translate(107.27810198031284 488.9194471628002) rotate(0 55.17789894901398 34.68325076795145)"><path d="M0 0 C18.39 11.56, 91.96 57.81, 110.36 69.37 M0 0 C18.39 11.56, 91.96 57.81, 110.36 69.37" stroke="#1e1e1e" stroke-width="2" fill="none"></path></g></g><mask></mask></g><g clip-path="url(#YjE1SmXw_JE61cPw30XIt)"><g stroke-linecap="round"><g transform="translate(289.5228196519133 137.04210300794512) rotate(0 43.51171459979378 1.8918136782519923)"><path d="M0 0 C14.5 0.63, 72.52 3.15, 87.02 3.78 M0 0 C14.5 0.63, 72.52 3.15, 87.02 3.78" stroke="#1e1e1e" stroke-width="2" fill="none"></path></g></g><mask></mask></g><g clip-path="url(#YjE1SmXw_JE61cPw30XIt)"><g stroke-linecap="round"><g transform="translate(292.0452378895825 280.18933799567276) rotate(0 43.51171459979389 0)"><path d="M0 0 C14.5 0, 72.52 0, 87.02 0 M0 0 C14.5 0, 72.52 0, 87.02 0" stroke="#1e1e1e" stroke-width="2" fill="none"></path></g></g><mask></mask></g><g clip-path="url(#YjE1SmXw_JE61cPw30XIt)"><g stroke-linecap="round"><g transform="translate(288.2616105330785 427.1202003399044) rotate(0 43.1964123200853 2.5224182376691715)"><path d="M0 0 C14.4 0.84, 71.99 4.2, 86.39 5.04 M0 0 C14.4 0.84, 71.99 4.2, 86.39 5.04" stroke="#1e1e1e" stroke-width="2" fill="none"></path></g></g><mask></mask></g><g clip-path="url(#YjE1SmXw_JE61cPw30XIt)"><g stroke-linecap="round"><g transform="translate(290.7840287707479 574.681667243553) rotate(0 42.250505480959305 0.3153022797087033)"><path d="M0 0 C14.08 0.11, 70.42 0.53, 84.5 0.63 M0 0 C14.08 0.11, 70.42 0.53, 84.5 0.63" stroke="#1e1e1e" stroke-width="2" fill="none"></path></g></g><mask></mask></g><g clip-path="url(#YjE1SmXw_JE61cPw30XIt)"><g stroke-linecap="round"><g transform="translate(292.6758424489999 279.55873343625535) rotate(0 39.412784963581316 -67.78999013735984)"><path d="M0 0 C13.14 -22.6, 65.69 -112.98, 78.83 -135.58 M0 0 C13.14 -22.6, 65.69 -112.98, 78.83 -135.58" stroke="#1e1e1e" stroke-width="2" fill="none"></path></g></g><mask></mask></g><g clip-path="url(#YjE1SmXw_JE61cPw30XIt)"><g stroke-linecap="round"><g transform="translate(289.5228196519133 278.297524317421) rotate(0 41.61990092154201 74.7266402909504)"><path d="M0 0 C13.87 24.91, 69.37 124.54, 83.24 149.45 M0 0 C13.87 24.91, 69.37 124.54, 83.24 149.45" stroke="#1e1e1e" stroke-width="2" fill="none"></path></g></g><mask></mask></g><g clip-path="url(#YjE1SmXw_JE61cPw30XIt)"><g stroke-linecap="round"><g transform="translate(290.7840287707479 273.88329240150006) rotate(0 40.35869180270731 148.8226760224834)"><path d="M0 0 C13.45 49.61, 67.26 248.04, 80.72 297.65 M0 0 C13.45 49.61, 67.26 248.04, 80.72 297.65" stroke="#1e1e1e" stroke-width="2" fill="none"></path></g></g><mask></mask></g><g clip-path="url(#YjE1SmXw_JE61cPw30XIt)"><g stroke-linecap="round"><g transform="translate(290.15342421133073 139.5645212456143) rotate(0 42.25050548095919 70.31240837502924)"><path d="M0 0 C14.08 23.44, 70.42 117.19, 84.5 140.62 M0 0 C14.08 23.44, 70.42 117.19, 84.5 140.62" stroke="#1e1e1e" stroke-width="2" fill="none"></path></g></g><mask></mask></g><g clip-path="url(#YjE1SmXw_JE61cPw30XIt)"><g stroke-linecap="round"><g transform="translate(287.00040141424415 132.62787109202418) rotate(0 41.9352032012506 144.40844410656223)"><path d="M0 0 C13.98 48.14, 69.89 240.68, 83.87 288.82 M0 0 C13.98 48.14, 69.89 240.68, 83.87 288.82" stroke="#1e1e1e" stroke-width="2" fill="none"></path></g></g><mask></mask></g><g clip-path="url(#YjE1SmXw_JE61cPw30XIt)"><g stroke-linecap="round"><g transform="translate(288.8922150924959 136.4114984485277) rotate(0 40.98929636212472 213.45964336275688)"><path d="M0 0 C13.66 71.15, 68.32 355.77, 81.98 426.92 M0 0 C13.66 71.15, 68.32 355.77, 81.98 426.92" stroke="#1e1e1e" stroke-width="2" fill="none"></path></g></g><mask></mask></g><g clip-path="url(#YjE1SmXw_JE61cPw30XIt)"><g stroke-linecap="round"><g transform="translate(290.15342421133073 426.489595780487) rotate(0 40.6739940824159 -141.88602586889306)"><path d="M0 0 C13.56 -47.3, 67.79 -236.48, 81.35 -283.77 M0 0 C13.56 -47.3, 67.79 -236.48, 81.35 -283.77" stroke="#1e1e1e" stroke-width="2" fill="none"></path></g></g><mask></mask></g><g clip-path="url(#YjE1SmXw_JE61cPw30XIt)"><g stroke-linecap="round"><g transform="translate(289.5228196519133 423.3365729834004) rotate(0 40.673994082416016 -72.204222053281)"><path d="M0 0 C13.56 -24.07, 67.79 -120.34, 81.35 -144.41 M0 0 C13.56 -24.07, 67.79 -120.34, 81.35 -144.41" stroke="#1e1e1e" stroke-width="2" fill="none"></path></g></g><mask></mask></g><g clip-path="url(#YjE1SmXw_JE61cPw30XIt)"><g stroke-linecap="round"><g transform="translate(288.8922150924959 427.7508048993218) rotate(0 40.358691802707426 72.204222053281)"><path d="M0 0 C13.45 24.07, 67.26 120.34, 80.72 144.41 M0 0 C13.45 24.07, 67.26 120.34, 80.72 144.41" stroke="#1e1e1e" stroke-width="2" fill="none"></path></g></g><mask></mask></g><g clip-path="url(#YjE1SmXw_JE61cPw30XIt)"><g stroke-linecap="round"><g transform="translate(290.7840287707479 569.0062262087972) rotate(0 40.35869180270731 -210.3066205656703)"><path d="M0 0 C13.45 -70.1, 67.26 -350.51, 80.72 -420.61 M0 0 C13.45 -70.1, 67.26 -350.51, 80.72 -420.61" stroke="#1e1e1e" stroke-width="2" fill="none"></path></g></g><mask></mask></g><g clip-path="url(#YjE1SmXw_JE61cPw30XIt)"><g stroke-linecap="round"><g transform="translate(287.00040141424415 564.5919942928763) rotate(0 42.8811100403766 -141.25542130947588)"><path d="M0 0 C14.29 -47.09, 71.47 -235.43, 85.76 -282.51 M0 0 C14.29 -47.09, 71.47 -235.43, 85.76 -282.51" stroke="#1e1e1e" stroke-width="2" fill="none"></path></g></g><mask></mask></g><g clip-path="url(#YjE1SmXw_JE61cPw30XIt)"><g stroke-linecap="round"><g transform="translate(287.63100597366133 563.3307851740415) rotate(0 42.56580776066801 -64.95226961998196)"><path d="M0 0 C14.19 -21.65, 70.94 -108.25, 85.13 -129.9 M0 0 C14.19 -21.65, 70.94 -108.25, 85.13 -129.9" stroke="#1e1e1e" stroke-width="2" fill="none"></path></g></g><mask></mask></g><g clip-path="url(#YjE1SmXw_JE61cPw30XIt)"><g stroke-linecap="round"><g transform="translate(449.0657731844908 140.8257303644491) rotate(0 50.763667033092815 64.95226961998219)"><path d="M0 0 C16.92 21.65, 84.61 108.25, 101.53 129.9 M0 0 C16.92 21.65, 84.61 108.25, 101.53 129.9" stroke="#1e1e1e" stroke-width="2" fill="none"></path></g></g><mask></mask></g><g clip-path="url(#YjE1SmXw_JE61cPw30XIt)"><g stroke-linecap="round"><g transform="translate(445.28214582798705 280.18933799567276) rotate(0 52.024876151927515 -5.044836475338343)"><path d="M0 0 C17.34 -1.68, 86.71 -8.41, 104.05 -10.09 M0 0 C17.34 -1.68, 86.71 -8.41, 104.05 -10.09" stroke="#1e1e1e" stroke-width="2" fill="none"></path></g></g><mask></mask></g><g clip-path="url(#YjE1SmXw_JE61cPw30XIt)"><g stroke-linecap="round"><g transform="translate(449.6963777439082 428.3814094587392) rotate(0 48.241248795423644 -81.03268588512356)"><path d="M0 0 C16.08 -27.01, 80.4 -135.05, 96.48 -162.07 M0 0 C16.08 -27.01, 80.4 -135.05, 96.48 -162.07" stroke="#1e1e1e" stroke-width="2" fill="none"></path></g></g><mask></mask></g><g clip-path="url(#YjE1SmXw_JE61cPw30XIt)"><g stroke-linecap="round"><g transform="translate(447.17395950623904 570.267435327632) rotate(0 49.81776019396682 -150.08388514131798)"><path d="M0 0 C16.61 -50.03, 83.03 -250.14, 99.64 -300.17 M0 0 C16.61 -50.03, 83.03 -250.14, 99.64 -300.17" stroke="#1e1e1e" stroke-width="2" fill="none"></path></g></g><mask></mask></g><g clip-path="url(#YjE1SmXw_JE61cPw30XIt)"><g stroke-linecap="round"><g transform="translate(445.91275038740423 143.34814860211827) rotate(0 51.07896931280152 135.8952825544286)"><path d="M0 0 C17.03 45.3, 85.13 226.49, 102.16 271.79 M0 0 C17.03 45.3, 85.13 226.49, 102.16 271.79" stroke="#1e1e1e" stroke-width="2" fill="none"></path></g></g><mask></mask></g><g clip-path="url(#YjE1SmXw_JE61cPw30XIt)"><g stroke-linecap="round"><g transform="translate(445.91275038740423 281.4505471145076) rotate(0 50.76366703309293 67.47468785765136)"><path d="M0 0 C16.92 22.49, 84.61 112.46, 101.53 134.95 M0 0 C16.92 22.49, 84.61 112.46, 101.53 134.95" stroke="#1e1e1e" stroke-width="2" fill="none"></path></g></g><mask></mask></g><g clip-path="url(#YjE1SmXw_JE61cPw30XIt)"><g stroke-linecap="round"><g transform="translate(447.17395950623904 420.1835501863138) rotate(0 49.81776019396682 -1.891813678251765)"><path d="M0 0 C16.61 -0.63, 83.03 -3.15, 99.64 -3.78 M0 0 C16.61 -0.63, 83.03 -3.15, 99.64 -3.78" stroke="#1e1e1e" stroke-width="2" fill="none"></path></g></g><mask></mask></g><g clip-path="url(#YjE1SmXw_JE61cPw30XIt)"><g stroke-linecap="round"><g transform="translate(445.91275038740423 566.4838079711285) rotate(0 51.07896931280152 -78.19496536774568)"><path d="M0 0 C17.03 -26.06, 85.13 -130.32, 102.16 -156.39 M0 0 C17.03 -26.06, 85.13 -130.32, 102.16 -156.39" stroke="#1e1e1e" stroke-width="2" fill="none"></path></g></g><mask></mask></g><g clip-path="url(#YjE1SmXw_JE61cPw30XIt)"><g transform="translate(36.01978676615727 39.29839629826165) rotate(0 37.967979431152344 35)"><text x="0" y="24.528" font-family="Virgil, Segoe UI Emoji" font-size="28px" fill="#e03131" text-anchor="start" style="white-space: pre;" direction="ltr" dominant-baseline="alphabetic">Input</text><text x="0" y="59.528" font-family="Virgil, Segoe UI Emoji" font-size="28px" fill="#e03131" text-anchor="start" style="white-space: pre;" direction="ltr" dominant-baseline="alphabetic">Layer</text></g></g><g clip-path="url(#YjE1SmXw_JE61cPw30XIt)"><g stroke-linecap="round" transform="translate(38.884683321452485 309.0509237030601) rotate(0 37.5 37.5)"><path d="M59.04 6.94 C64.99 10.42, 72.64 18.97, 74.85 25.92 C77.05 32.86, 74.78 41.44, 72.25 48.59 C69.72 55.75, 65.54 64.51, 59.67 68.85 C53.81 73.2, 44.57 75.14, 37.05 74.67 C29.52 74.2, 20.36 70.62, 14.5 66.05 C8.64 61.48, 3.92 54.11, 1.88 47.24 C-0.15 40.38, 0.12 31.34, 2.3 24.86 C4.49 18.38, 8.69 12.18, 14.98 8.35 C21.28 4.51, 30.13 -4.94, 40.08 1.85 C50.03 8.63, 74.35 37.14, 74.69 49.06 C75.02 60.97, 43.09 73.91, 42.11 73.33 M17 3.73 C22.76 -0.67, 31.01 -0.2, 38.57 0.8 C46.12 1.81, 56.87 5.73, 62.34 9.76 C67.82 13.8, 69.67 18.14, 71.42 25.01 C73.18 31.88, 75.36 43.48, 72.88 51 C70.4 58.52, 62.72 65.76, 56.55 70.14 C50.38 74.51, 42.85 78.04, 35.86 77.27 C28.87 76.51, 20.49 70.68, 14.63 65.54 C8.77 60.4, 2.88 53.06, 0.73 46.45 C-1.42 39.84, -0.8 32.21, 1.74 25.88 C4.27 19.54, 13.64 11.33, 15.92 8.44 C18.19 5.55, 14.72 8.54, 15.39 8.53" stroke="none" stroke-width="0" fill="#ffc9c9"></path><path d="M32.24 1.98 C39.27 0.84, 50.99 3.33, 57.4 6.4 C63.82 9.47, 68.21 14.24, 70.73 20.39 C73.26 26.53, 73.67 36.2, 72.55 43.28 C71.42 50.35, 68.71 57.74, 63.97 62.84 C59.23 67.94, 51.24 72.94, 44.1 73.87 C36.97 74.81, 28.15 71.99, 21.15 68.44 C14.15 64.88, 5.26 59.16, 2.1 52.54 C-1.06 45.93, 0.66 36.02, 2.19 28.77 C3.72 21.53, 2.65 13.62, 11.29 9.07 C19.94 4.52, 44.41 0.35, 54.07 1.47 C63.73 2.59, 69.7 15.2, 69.26 15.79 M35.77 -2.68 C43.44 -2.37, 54.9 5.66, 61.33 9.97 C67.75 14.28, 71.87 17.16, 74.33 23.2 C76.79 29.25, 78.22 38.91, 76.07 46.26 C73.93 53.61, 68.15 62.35, 61.45 67.31 C54.74 72.26, 43.07 76, 35.84 75.98 C28.61 75.97, 24.03 71.64, 18.04 67.21 C12.06 62.79, 2.58 56.19, -0.09 49.43 C-2.77 42.67, -0.76 33.41, 2 26.66 C4.75 19.91, 10.81 13.71, 16.46 8.93 C22.11 4.15, 32.29 -1.1, 35.91 -2.02 C39.52 -2.94, 37.65 2.36, 38.16 3.39" stroke="#1e1e1e" stroke-width="2" fill="none"></path></g></g><g clip-path="url(#YjE1SmXw_JE61cPw30XIt)"><g stroke-linecap="round" transform="translate(32.40319669252381 463.15520515821026) rotate(0 37.5 37.5)"><path d="M64.8 14.5 C69.61 19.19, 74.18 27.7, 74.82 34.83 C75.47 41.96, 72.25 51.03, 68.65 57.28 C65.05 63.53, 59.8 69.26, 53.23 72.33 C46.66 75.4, 36.82 77.2, 29.21 75.7 C21.59 74.19, 12.17 69.21, 7.53 63.29 C2.89 57.36, 1.54 47.46, 1.36 40.16 C1.18 32.86, 2.82 25.49, 6.43 19.49 C10.05 13.5, 16.1 7.39, 23.06 4.21 C30.01 1.03, 39.73 -4.15, 48.17 0.42 C56.6 4.98, 70.01 23, 73.68 31.59 C77.35 40.19, 70.82 51.44, 70.18 52.01 M62.76 10.43 C67.22 15.52, 70.94 26.5, 72.61 33.68 C74.28 40.86, 75.98 47.55, 72.79 53.5 C69.6 59.44, 60.8 65.91, 53.49 69.35 C46.18 72.79, 35.85 75.48, 28.93 74.13 C22 72.78, 16.8 66.62, 11.94 61.24 C7.08 55.86, 1.38 49.05, -0.24 41.86 C-1.86 34.67, -1.73 24.61, 2.22 18.1 C6.17 11.6, 16.2 5.31, 23.46 2.83 C30.73 0.34, 39.16 1.79, 45.81 3.19 C52.47 4.59, 60.26 9.81, 63.39 11.25 C66.53 12.7, 65.05 11.2, 64.62 11.85" stroke="none" stroke-width="0" fill="#ffc9c9"></path><path d="M45.97 0.18 C52.6 1.41, 62.11 8.62, 66.68 14.73 C71.26 20.84, 73.12 29.38, 73.4 36.85 C73.68 44.31, 72.13 53.77, 68.35 59.52 C64.57 65.27, 57.61 69.18, 50.74 71.34 C43.87 73.49, 34.24 74.09, 27.13 72.46 C20.01 70.82, 12.59 66.84, 8.06 61.52 C3.52 56.2, 0.36 47.82, -0.09 40.54 C-0.55 33.26, 1.1 24.32, 5.32 17.82 C9.55 11.31, 16.56 3.53, 25.25 1.53 C33.94 -0.48, 50.76 3.67, 57.47 5.79 C64.17 7.9, 65.89 13.78, 65.49 14.24 M57.7 4.93 C64.31 8.76, 72.49 20.37, 74.93 27.17 C77.38 33.97, 74.68 38.76, 72.37 45.72 C70.06 52.68, 67 63.68, 61.08 68.93 C55.17 74.18, 44.48 77.59, 36.88 77.21 C29.28 76.83, 21.56 71.35, 15.5 66.64 C9.43 61.93, 3.22 55.83, 0.5 48.94 C-2.21 42.05, -3.34 32.37, -0.8 25.31 C1.74 18.26, 9.91 10.36, 15.74 6.63 C21.57 2.89, 27.21 2.76, 34.19 2.9 C41.18 3.03, 53.97 6.81, 57.65 7.41 C61.34 8.02, 56.44 5.64, 56.29 6.54" stroke="#1e1e1e" stroke-width="2" fill="none"></path></g></g><g clip-path="url(#YjE1SmXw_JE61cPw30XIt)"><g stroke-linecap="round" transform="translate(215.71994592457236 101.80533405061715) rotate(0 37.5 37.5)"><path d="M8.15 15.44 C11.92 9.33, 18.31 2.3, 25.19 0.03 C32.07 -2.24, 42.07 -0.81, 49.42 1.82 C56.77 4.45, 64.73 9.87, 69.3 15.81 C73.88 21.75, 77.48 29.84, 76.88 37.45 C76.27 45.05, 70.66 55.39, 65.69 61.43 C60.73 67.47, 53.99 72.03, 47.06 73.67 C40.14 75.3, 30.58 74.01, 24.16 71.25 C17.73 68.49, 12.56 62.86, 8.5 57.1 C4.45 51.33, -4.78 45.87, -0.17 36.66 C4.44 27.45, 24.78 5.36, 36.16 1.82 C47.55 -1.72, 68.21 14.9, 68.15 15.43 M12.6 9.88 C17.53 4.48, 27.18 1.39, 34.63 0.55 C42.07 -0.29, 51.59 1.13, 57.26 4.84 C62.93 8.55, 66.24 15.69, 68.65 22.81 C71.06 29.92, 72.55 40.25, 71.72 47.51 C70.89 54.76, 68.37 61.71, 63.65 66.33 C58.92 70.96, 51.13 74.87, 43.38 75.25 C35.62 75.63, 23.94 72.58, 17.11 68.63 C10.28 64.68, 4.92 57.65, 2.39 51.55 C-0.15 45.45, -0.09 38.72, 1.87 32.05 C3.84 25.38, 12.14 15.44, 14.18 11.53 C16.22 7.62, 13.71 8.63, 14.11 8.61" stroke="none" stroke-width="0" fill="#a5d8ff"></path><path d="M24.44 1.83 C30.19 -1.21, 38.01 -2.71, 45.09 -0.58 C52.16 1.56, 62.11 8.76, 66.87 14.65 C71.63 20.53, 73.17 27.41, 73.64 34.71 C74.11 42.01, 73.26 52.2, 69.71 58.44 C66.17 64.67, 58.94 69.59, 52.38 72.1 C45.82 74.61, 37.68 75.03, 30.35 73.49 C23.02 71.94, 13.58 68.45, 8.4 62.82 C3.21 57.19, -0.01 47.16, -0.75 39.72 C-1.49 32.27, -2.64 24.53, 3.95 18.17 C10.54 11.8, 30.03 3.58, 38.79 1.54 C47.55 -0.51, 56.55 5.67, 56.49 5.88 M60.1 10.88 C66 15.53, 70.32 22.66, 72.68 28.92 C75.04 35.19, 76.62 42, 74.25 48.46 C71.89 54.92, 64.43 63.07, 58.49 67.7 C52.55 72.32, 45.62 76.08, 38.61 76.22 C31.6 76.37, 22.16 72.94, 16.43 68.58 C10.71 64.23, 6.19 57.76, 4.25 50.07 C2.31 42.38, 2.76 30.12, 4.78 22.44 C6.8 14.77, 10.46 7.58, 16.38 4.04 C22.3 0.51, 33.05 0.13, 40.29 1.24 C47.54 2.34, 56.34 9.11, 59.85 10.67 C63.36 12.23, 61.12 10.96, 61.35 10.58" stroke="#1e1e1e" stroke-width="2" fill="none"></path></g></g><g clip-path="url(#YjE1SmXw_JE61cPw30XIt)"><g stroke-linecap="round" transform="translate(216.11175960282435 244.51389696091746) rotate(0 37.5 37.5)"><path d="M26.28 3.14 C32.59 0.32, 41.2 -1.85, 48.11 0.08 C55.01 2.01, 62.98 8.98, 67.73 14.73 C72.49 20.48, 76.22 27.23, 76.64 34.59 C77.06 41.94, 74.72 52.48, 70.24 58.85 C65.76 65.23, 57.14 70.24, 49.78 72.85 C42.42 75.46, 32.78 76.71, 26.11 74.52 C19.44 72.33, 14.05 65.88, 9.75 59.73 C5.45 53.58, 0.54 44.91, 0.31 37.62 C0.08 30.32, 1.65 22.33, 8.37 15.93 C15.09 9.54, 32.6 0.59, 40.62 -0.74 C48.65 -2.07, 56.34 6.86, 56.52 7.92 M32.49 1.46 C39.2 -0.12, 45.27 2.79, 52.01 6.25 C58.74 9.7, 69.1 16.17, 72.91 22.17 C76.73 28.17, 76.82 35.73, 74.88 42.27 C72.93 48.8, 66.99 55.99, 61.24 61.39 C55.49 66.79, 46.74 73.3, 40.39 74.69 C34.03 76.07, 28.77 73.31, 23.11 69.71 C17.45 66.11, 10.42 59.19, 6.42 53.08 C2.42 46.97, -1.86 39.86, -0.89 33.06 C0.08 26.25, 6.51 18.19, 12.24 12.26 C17.97 6.32, 29.73 -0.62, 33.51 -2.56 C37.29 -4.5, 35.19 0, 34.92 0.62" stroke="none" stroke-width="0" fill="#a5d8ff"></path><path d="M44.82 1.82 C51.69 2.97, 60.2 8.52, 65.45 13.78 C70.71 19.04, 75.65 26.09, 76.35 33.36 C77.06 40.64, 73.72 51, 69.69 57.43 C65.66 63.87, 58.95 69.1, 52.18 71.98 C45.41 74.85, 36.05 76.62, 29.04 74.67 C22.04 72.72, 15.09 66.03, 10.15 60.27 C5.21 54.52, 0.32 46.9, -0.61 40.13 C-1.54 33.36, 0.32 25.93, 4.57 19.63 C8.82 13.33, 15.84 4.55, 24.9 2.31 C33.95 0.07, 51.94 4.08, 58.92 6.18 C65.89 8.27, 67.21 14.74, 66.73 14.87 M40.49 -0.94 C47.31 -0.19, 58.24 6.7, 64.22 12.47 C70.19 18.24, 75.37 26.93, 76.32 33.69 C77.26 40.45, 73.62 46.58, 69.89 53.02 C66.16 59.47, 59.96 68.92, 53.95 72.36 C47.94 75.8, 40.54 74.98, 33.83 73.68 C27.13 72.39, 19.66 69.54, 13.71 64.59 C7.76 59.63, -0.56 51.46, -1.88 43.98 C-3.2 36.5, 2.32 25.93, 5.81 19.72 C9.3 13.51, 12.85 9.89, 19.05 6.74 C25.25 3.59, 38.83 1.31, 42.99 0.82 C47.15 0.33, 44.13 3.49, 44.01 3.79" stroke="#1e1e1e" stroke-width="2" fill="none"></path></g></g><g clip-path="url(#YjE1SmXw_JE61cPw30XIt)"><g stroke-linecap="round" transform="translate(217.59324623175326 391.96125075238297) rotate(0 37.5 37.5)"><path d="M6.59 14.57 C9.8 8.33, 17.06 2.96, 24.2 0.46 C31.33 -2.04, 42.05 -2.46, 49.4 -0.42 C56.75 1.61, 64.23 6.52, 68.32 12.68 C72.41 18.83, 73.72 29.13, 73.94 36.54 C74.17 43.94, 73.45 51.2, 69.66 57.08 C65.86 62.96, 58.39 69.28, 51.17 71.82 C43.95 74.36, 33.32 74.03, 26.33 72.33 C19.34 70.62, 13.35 67.42, 9.22 61.6 C5.08 55.78, 0.65 46.16, 1.51 37.41 C2.37 28.66, 10.56 15.13, 14.4 9.11 C18.24 3.09, 24.4 1.16, 24.54 1.3 M16.03 2.28 C22.27 -1.55, 34.28 -0.61, 41.9 0.92 C49.52 2.46, 55.98 7.07, 61.74 11.5 C67.5 15.92, 74.96 20.87, 76.46 27.48 C77.96 34.1, 74.21 44.47, 70.74 51.17 C67.27 57.86, 62.24 63.95, 55.64 67.65 C49.05 71.35, 38.29 73.36, 31.16 73.37 C24.02 73.39, 17.47 72.81, 12.84 67.75 C8.22 62.7, 5.47 50.99, 3.41 43.06 C1.36 35.13, -1.9 26.55, 0.5 20.18 C2.9 13.82, 14.55 7.71, 17.81 4.89 C21.07 2.06, 20.14 2.6, 20.06 3.24" stroke="none" stroke-width="0" fill="#a5d8ff"></path><path d="M11.76 10.44 C16.37 5.63, 25.13 1.67, 32.7 0.49 C40.28 -0.7, 50.69 -0.36, 57.2 3.35 C63.7 7.05, 69.21 15.73, 71.75 22.73 C74.28 29.74, 73.73 38.04, 72.41 45.37 C71.09 52.71, 69.18 62.03, 63.84 66.76 C58.5 71.49, 48.15 73.08, 40.37 73.75 C32.59 74.42, 23.25 74.32, 17.16 70.78 C11.07 67.23, 6.37 59.23, 3.81 52.48 C1.26 45.73, -0.25 38.17, 1.83 30.28 C3.92 22.38, 12.55 9.73, 16.32 5.12 C20.1 0.52, 24.13 1.95, 24.48 2.64 M12.72 10.65 C17.11 5.72, 24.15 2.01, 31.01 0.59 C37.88 -0.83, 47.44 -1.22, 53.9 2.14 C60.36 5.49, 66.83 14.05, 69.78 20.7 C72.73 27.35, 72.56 34.51, 71.6 42.04 C70.64 49.57, 68.5 60.49, 64.03 65.87 C59.55 71.24, 52.13 73.28, 44.76 74.29 C37.39 75.3, 26.39 75.56, 19.81 71.93 C13.22 68.29, 8.75 59.6, 5.26 52.48 C1.78 45.37, -2.34 36.36, -1.1 29.23 C0.13 22.1, 10.03 12.92, 12.69 9.69 C15.35 6.47, 14.41 9.08, 14.85 9.87" stroke="#1e1e1e" stroke-width="2" fill="none"></path></g></g><g clip-path="url(#YjE1SmXw_JE61cPw30XIt)"><g stroke-linecap="round" transform="translate(217.20143255350104 533.057722474337) rotate(0 37.5 37.5)"><path d="M13.74 10.25 C18.97 4.95, 27.13 -0.82, 34.21 -1.62 C41.29 -2.43, 50.05 1.16, 56.23 5.39 C62.4 9.63, 68.19 16.88, 71.27 23.8 C74.34 30.71, 76.44 39.76, 74.69 46.89 C72.93 54.03, 66.58 61.74, 60.73 66.6 C54.88 71.46, 46.3 75.86, 39.57 76.07 C32.84 76.27, 26.15 72.1, 20.36 67.82 C14.57 63.53, 8.09 56.55, 4.83 50.35 C1.57 44.15, -2.41 38.37, 0.81 30.64 C4.03 22.9, 18.08 8.92, 24.15 3.95 C30.21 -1.02, 36.87 0.78, 37.19 0.81 M17.76 5.02 C23.31 0.85, 32.8 -2.15, 39.98 -1.17 C47.17 -0.19, 55.57 5.64, 60.86 10.93 C66.14 16.21, 69.81 23.12, 71.67 30.54 C73.53 37.97, 75.25 48.54, 72.03 55.49 C68.81 62.44, 58.65 69.42, 52.35 72.24 C46.05 75.06, 40.78 74.06, 34.23 72.41 C27.68 70.76, 18.51 66.61, 13.05 62.35 C7.6 58.1, 3.44 53.45, 1.49 46.86 C-0.45 40.27, -1.53 29.4, 1.36 22.83 C4.25 16.26, 16.17 10.46, 18.86 7.43 C21.55 4.4, 17.37 4.66, 17.49 4.65" stroke="none" stroke-width="0" fill="#a5d8ff"></path><path d="M37.29 -1.68 C43.78 -2.24, 53.13 2.72, 59.15 7.71 C65.16 12.7, 71.42 21.45, 73.38 28.26 C75.34 35.07, 73.38 41.98, 70.89 48.57 C68.41 55.16, 64.39 63.52, 58.46 67.81 C52.54 72.1, 42.43 74.36, 35.34 74.31 C28.26 74.26, 21.28 72.22, 15.93 67.51 C10.58 62.8, 5.47 52.98, 3.23 46.05 C0.98 39.11, 0.35 32.78, 2.47 25.9 C4.58 19.03, 8.58 9.29, 15.94 4.8 C23.3 0.31, 40.86 -0.72, 46.65 -1.04 C52.43 -1.37, 51.11 2.07, 50.67 2.86 M63.87 10.67 C69.12 14.85, 69.92 21.33, 71.29 27.9 C72.67 34.46, 73.85 42.93, 72.12 50.06 C70.38 57.18, 67.32 66.34, 60.9 70.67 C54.48 75, 41.37 76.66, 33.61 76.02 C25.84 75.39, 19.44 71.47, 14.31 66.88 C9.19 62.29, 5.16 55.55, 2.86 48.49 C0.57 41.43, -2.17 31.38, 0.55 24.52 C3.27 17.66, 12.93 11.8, 19.19 7.32 C25.45 2.85, 31.44 -2.32, 38.12 -2.31 C44.8 -2.31, 55.59 5.23, 59.26 7.34 C62.93 9.45, 60.08 9.55, 60.13 10.34" stroke="#1e1e1e" stroke-width="2" fill="none"></path></g></g><g clip-path="url(#YjE1SmXw_JE61cPw30XIt)"><g stroke-linecap="round" transform="translate(544.7014325535006 249.0772468073269) rotate(0 37.5 37.5)"><path d="M33.6 -1.49 C40.8 -2.88, 49.73 1.38, 56.31 5.1 C62.89 8.82, 70.36 13.94, 73.08 20.82 C75.8 27.7, 74.64 38.76, 72.64 46.38 C70.64 53.99, 66.02 61.47, 61.06 66.52 C56.1 71.57, 49.69 76.24, 42.86 76.67 C36.03 77.11, 26.9 72.97, 20.07 69.12 C13.24 65.27, 4.88 60.47, 1.88 53.59 C-1.11 46.71, 0.14 35.04, 2.09 27.83 C4.05 20.62, 7.78 14.96, 13.61 10.32 C19.43 5.69, 32.01 1.47, 37.04 -0.01 C42.06 -1.49, 43.34 1.02, 43.76 1.45 M20.68 6.13 C26.98 1.81, 37.04 -1.41, 43.57 -0.55 C50.1 0.31, 55.16 6.2, 59.87 11.3 C64.58 16.39, 69.63 23.34, 71.81 30 C74 36.66, 75.8 44.56, 72.97 51.25 C70.15 57.95, 61.12 66.41, 54.83 70.16 C48.55 73.91, 42.21 75.01, 35.26 73.75 C28.3 72.48, 19.02 67.11, 13.11 62.56 C7.2 58.02, 1.47 53.51, -0.2 46.5 C-1.87 39.49, 0.01 27.46, 3.1 20.52 C6.18 13.57, 15.96 7.25, 18.32 4.84 C20.68 2.42, 17.14 5.94, 17.25 6.03" stroke="none" stroke-width="0" fill="#b2f2bb"></path><path d="M9.86 10.74 C14.26 5.56, 22.03 2.94, 29.34 1.35 C36.65 -0.24, 46.78 -1.87, 53.72 1.2 C60.67 4.26, 67.76 12.9, 71.02 19.74 C74.29 26.57, 74.48 34.97, 73.31 42.19 C72.14 49.4, 68.34 57.97, 63.99 63.03 C59.65 68.1, 54.01 71.2, 47.26 72.57 C40.51 73.95, 30.19 74.25, 23.49 71.27 C16.8 68.29, 11.03 61.17, 7.09 54.71 C3.15 48.24, -2.49 40.88, -0.15 32.49 C2.19 24.09, 15.33 9.65, 21.13 4.34 C26.93 -0.98, 34.13 0.43, 34.66 0.6 M45.47 1.33 C52.02 2.92, 59.23 8.73, 63.94 14.07 C68.65 19.41, 72.28 26.35, 73.73 33.36 C75.17 40.38, 75.69 49.3, 72.6 56.15 C69.52 63, 62.45 71.52, 55.22 74.47 C47.99 77.42, 36.48 76.14, 29.22 73.86 C21.96 71.59, 16.45 66.43, 11.65 60.8 C6.85 55.18, 1.31 46.84, 0.42 40.12 C-0.48 33.39, 2.96 27.09, 6.28 20.45 C9.6 13.82, 14.12 3.4, 20.34 0.29 C26.56 -2.83, 39.62 2.03, 43.61 1.75 C47.59 1.47, 44.41 -1.49, 44.23 -1.39" stroke="#1e1e1e" stroke-width="2" fill="none"></path></g></g><g clip-path="url(#YjE1SmXw_JE61cPw30XIt)"><g stroke-linecap="round" transform="translate(547.8953869593277 390.26339147995805) rotate(0 37.5 37.5)"><path d="M66.83 15.54 C71.7 20.99, 75.71 29.97, 75.74 36.73 C75.76 43.49, 71.43 50.46, 66.98 56.1 C62.53 61.74, 55.45 67.6, 49.04 70.56 C42.63 73.52, 35.56 75.7, 28.51 73.85 C21.46 72, 11.54 64.84, 6.73 59.44 C1.91 54.03, -0.29 48.41, -0.39 41.41 C-0.5 34.4, 2.33 23.94, 6.1 17.4 C9.86 10.86, 15.03 4.88, 22.2 2.17 C29.36 -0.55, 40.24 -4.22, 49.1 1.1 C57.95 6.42, 72.2 25.09, 75.32 34.08 C78.43 43.08, 68.67 55.07, 67.79 55.1 M25.79 -0.12 C32.98 -2.51, 44.26 -1.55, 50.71 1.22 C57.16 3.99, 60.05 10.36, 64.48 16.5 C68.91 22.64, 76.66 31.08, 77.28 38.06 C77.9 45.04, 73.17 52.7, 68.2 58.38 C63.23 64.05, 54.39 69.81, 47.44 72.12 C40.48 74.43, 32.63 73.77, 26.46 72.23 C20.29 70.69, 14.51 68.19, 10.42 62.88 C6.33 57.57, 2.76 48.5, 1.91 40.37 C1.05 32.23, 1.15 20.45, 5.3 14.08 C9.44 7.71, 23.74 3.78, 26.77 2.15 C29.81 0.52, 23.1 3.39, 23.5 4.29" stroke="none" stroke-width="0" fill="#b2f2bb"></path><path d="M44.77 -0.35 C51.72 -0.09, 60.42 5.4, 65.57 10.48 C70.71 15.56, 74.78 22.98, 75.65 30.11 C76.51 37.25, 74.01 46.77, 70.74 53.31 C67.46 59.84, 62.34 65.87, 56 69.33 C49.67 72.79, 40.2 74.77, 32.74 74.06 C25.28 73.36, 16.92 70.27, 11.26 65.09 C5.59 59.92, 0.03 50.76, -1.25 43.02 C-2.52 35.29, -0.12 25.38, 3.59 18.67 C7.29 11.97, 11.54 4.96, 20.98 2.8 C30.42 0.64, 51.95 2.7, 60.22 5.72 C68.48 8.74, 71.04 20.54, 70.59 20.94 M12.36 8.62 C17.09 3.47, 24.17 2.83, 31.31 2.22 C38.46 1.61, 48.43 1.44, 55.24 4.96 C62.05 8.48, 68.8 17.14, 72.16 23.35 C75.52 29.56, 77.25 35.78, 75.42 42.23 C73.58 48.67, 66.73 56.23, 61.16 62.02 C55.58 67.82, 48.42 75.49, 41.96 77.01 C35.49 78.53, 28.86 74.9, 22.36 71.15 C15.87 67.4, 6.33 61.12, 2.98 54.51 C-0.37 47.9, 0.55 39.01, 2.28 31.49 C4.02 23.97, 11.36 12.85, 13.37 9.36 C15.38 5.87, 14.35 10.19, 14.33 10.55" stroke="#1e1e1e" stroke-width="2" fill="none"></path></g></g><g clip-path="url(#YjE1SmXw_JE61cPw30XIt)"><g stroke-linecap="round" transform="translate(372.1622449064448 102.73569091388845) rotate(0 37.5 37.5)"><path d="M69.11 17.1 C73.13 22.17, 73.66 29.81, 73.35 36.81 C73.03 43.81, 71.21 52.8, 67.24 59.1 C63.28 65.4, 56.54 72.14, 49.56 74.61 C42.57 77.09, 32.27 76.23, 25.34 73.95 C18.41 71.67, 12.11 67.27, 7.99 60.92 C3.86 54.57, 0.93 43.19, 0.58 35.83 C0.24 28.47, 1.66 22.12, 5.92 16.75 C10.19 11.37, 19.05 6.03, 26.17 3.58 C33.3 1.12, 40.32 -2.96, 48.66 2.04 C57 7.05, 72 25.97, 76.23 33.6 C80.47 41.23, 74.95 47.86, 74.09 47.82 M53 3.24 C60.14 6.34, 70.72 12.95, 74.47 19.65 C78.23 26.36, 77.34 36.1, 75.52 43.45 C73.7 50.8, 69.02 58.93, 63.57 63.75 C58.12 68.57, 50.5 71.68, 42.82 72.38 C35.14 73.07, 23.7 71.27, 17.5 67.93 C11.3 64.6, 8.78 58.45, 5.64 52.37 C2.5 46.28, -2.39 38.93, -1.34 31.42 C-0.29 23.91, 5.83 12.47, 11.92 7.31 C18.01 2.15, 27.66 0.73, 35.21 0.46 C42.76 0.19, 53.53 4.84, 57.23 5.71 C60.94 6.59, 57.55 5.74, 57.43 5.69" stroke="none" stroke-width="0" fill="#a5d8ff"></path><path d="M46.57 0.49 C53.51 1.12, 59.9 6.53, 64.51 12.32 C69.11 18.11, 73.39 27.91, 74.21 35.22 C75.03 42.53, 73.02 49.9, 69.43 56.2 C65.85 62.5, 59.04 70.26, 52.71 73.02 C46.37 75.78, 38.86 74.71, 31.4 72.74 C23.93 70.77, 12.96 66.22, 7.91 61.19 C2.85 56.17, 1.72 49.95, 1.06 42.6 C0.4 35.25, 0.24 23.37, 3.94 17.07 C7.65 10.76, 14.93 6.75, 23.29 4.77 C31.66 2.78, 47.68 4.1, 54.12 5.17 C60.56 6.24, 62.08 10.97, 61.93 11.2 M59.62 8.38 C65.25 12.5, 74.88 19.42, 76.87 26.8 C78.86 34.18, 74.77 45.68, 71.56 52.65 C68.35 59.62, 64.36 64.8, 57.64 68.6 C50.92 72.39, 38.3 75.9, 31.23 75.4 C24.17 74.89, 20.3 70.93, 15.26 65.57 C10.21 60.22, 2.89 50.19, 0.98 43.24 C-0.93 36.29, 0.9 30.66, 3.81 23.87 C6.73 17.08, 12.08 6.56, 18.49 2.5 C24.9 -1.57, 34.67 -1.96, 42.26 -0.53 C49.85 0.9, 61.01 9.58, 64.03 11.08 C67.05 12.58, 61.3 7.78, 60.38 8.46" stroke="#1e1e1e" stroke-width="2" fill="none"></path></g></g><g clip-path="url(#YjE1SmXw_JE61cPw30XIt)"><g stroke-linecap="round" transform="translate(372.55405858469703 245.44425382418876) rotate(0 37.5 37.5)"><path d="M54.97 4.85 C60.86 7.63, 67.95 15.38, 71.16 22.45 C74.38 29.51, 75.9 39.95, 74.27 47.26 C72.65 54.58, 66.85 61.56, 61.41 66.35 C55.97 71.14, 48.71 75.74, 41.64 75.97 C34.56 76.21, 25.56 71.55, 18.96 67.79 C12.35 64.02, 4.92 59.55, 2 53.4 C-0.92 47.26, -0.31 38.22, 1.46 30.92 C3.22 23.63, 6.89 14.48, 12.59 9.64 C18.29 4.81, 24.98 -2.87, 35.68 1.92 C46.37 6.71, 74.07 26.66, 76.77 38.4 C79.47 50.13, 52.64 72.31, 51.88 72.35 M9.11 14.9 C13.18 8.82, 18.98 3.65, 25.44 1.18 C31.9 -1.28, 40.88 -1.63, 47.9 0.12 C54.91 1.87, 63.33 6.14, 67.55 11.69 C71.76 17.23, 72.6 25.79, 73.17 33.37 C73.75 40.94, 75.07 50.4, 71 57.12 C66.93 63.84, 55.97 71.39, 48.74 73.69 C41.51 75.99, 33.97 73.03, 27.59 70.94 C21.22 68.85, 14.82 66.26, 10.49 61.15 C6.15 56.04, 1.94 47.6, 1.56 40.28 C1.18 32.96, 6.92 21.49, 8.22 17.24 C9.53 12.99, 9.02 14.91, 9.38 14.76" stroke="none" stroke-width="0" fill="#a5d8ff"></path><path d="M67.64 16.39 C71.67 22.2, 74.54 33.01, 74.36 40.35 C74.18 47.69, 70.95 54.7, 66.53 60.44 C62.12 66.17, 54.55 72.94, 47.87 74.74 C41.19 76.55, 33.66 74.23, 26.47 71.29 C19.29 68.36, 9.03 62.77, 4.77 57.13 C0.51 51.49, 0.57 44.85, 0.91 37.47 C1.26 30.09, 2.3 18.57, 6.84 12.83 C11.38 7.09, 20.95 4.63, 28.13 3.04 C35.3 1.46, 42.49 -0.52, 49.91 3.31 C57.33 7.14, 68.56 21, 72.63 26.01 C76.71 31.01, 74.66 33.07, 74.36 33.37 M18.83 3.94 C24.71 -0.26, 30.94 -0.35, 38.04 0.04 C45.14 0.44, 55.97 1.8, 61.44 6.33 C66.92 10.87, 68.54 19.99, 70.91 27.26 C73.28 34.53, 77.63 43.48, 75.65 49.95 C73.66 56.43, 65.4 61.68, 59.02 66.1 C52.63 70.52, 44.72 76.7, 37.33 76.48 C29.94 76.25, 20.48 69.57, 14.69 64.76 C8.89 59.94, 4.42 53.95, 2.58 47.61 C0.74 41.26, 1.65 33.79, 3.64 26.7 C5.63 19.61, 12.6 7.83, 14.51 5.07 C16.42 2.32, 14.45 9.37, 15.08 10.16" stroke="#1e1e1e" stroke-width="2" fill="none"></path></g></g><g clip-path="url(#YjE1SmXw_JE61cPw30XIt)"><g stroke-linecap="round" transform="translate(374.03554521362594 392.89160761565427) rotate(0 37.5 37.5)"><path d="M67.1 15.31 C71.91 20.99, 75.21 31.61, 75.18 39.1 C75.16 46.6, 71.2 54.42, 66.95 60.29 C62.7 66.16, 56.43 72.51, 49.68 74.32 C42.93 76.14, 33.7 73.47, 26.43 71.17 C19.16 68.88, 10.37 65.89, 6.06 60.54 C1.74 55.19, 0.38 46.56, 0.54 39.08 C0.71 31.61, 2.54 21.63, 7.06 15.71 C11.57 9.79, 20.31 6.17, 27.64 3.57 C34.96 0.98, 43.39 -7.6, 51.01 0.15 C58.63 7.9, 73.54 38.23, 73.35 50.08 C73.15 61.93, 50.81 71.91, 49.85 71.26 M20.93 3.24 C26.43 -0.37, 35.83 -1.67, 43.04 -0.87 C50.25 -0.07, 59.26 3.15, 64.19 8.03 C69.12 12.92, 71.07 20.98, 72.61 28.44 C74.15 35.9, 76.67 45.61, 73.44 52.81 C70.21 60.01, 60.08 68.44, 53.25 71.63 C46.42 74.82, 39.02 73.06, 32.45 71.92 C25.88 70.79, 18.89 69.26, 13.84 64.8 C8.78 60.35, 3.46 52.42, 2.12 45.21 C0.78 38, 2.42 28.78, 5.78 21.56 C9.15 14.34, 19.76 5.08, 22.32 1.91 C24.88 -1.27, 21.35 1.52, 21.15 2.52" stroke="none" stroke-width="0" fill="#a5d8ff"></path><path d="M29.62 2.07 C36.48 0.22, 46.04 0.12, 52.84 3.17 C59.65 6.22, 66.48 14.14, 70.45 20.37 C74.43 26.6, 77.87 33.67, 76.7 40.57 C75.54 47.48, 68.64 55.94, 63.47 61.8 C58.29 67.67, 52.81 74.37, 45.65 75.75 C38.5 77.13, 27.22 73.15, 20.53 70.1 C13.85 67.04, 9.02 63.43, 5.55 57.42 C2.07 51.41, -1.02 41.44, -0.32 34.03 C0.38 26.62, -0.89 17.06, 9.75 12.94 C20.38 8.81, 52.55 4.1, 63.49 9.28 C74.42 14.46, 76.03 43.72, 75.36 44.01 M23.25 2.74 C29.29 -0.09, 41.14 -2.06, 47.89 -0.18 C54.64 1.7, 58.81 8.16, 63.77 14.03 C68.73 19.9, 76.71 28.19, 77.65 35.05 C78.59 41.92, 73.65 48.77, 69.4 55.22 C65.14 61.68, 58.99 71.1, 52.13 73.78 C45.27 76.45, 35.31 73.42, 28.24 71.27 C21.17 69.11, 14.16 65.78, 9.72 60.84 C5.29 55.89, 2.57 49.08, 1.63 41.6 C0.7 34.12, 0.73 21.96, 4.13 15.95 C7.53 9.94, 18.77 7.63, 22.05 5.56 C25.33 3.48, 22.87 2.99, 23.82 3.49" stroke="#1e1e1e" stroke-width="2" fill="none"></path></g></g><g clip-path="url(#YjE1SmXw_JE61cPw30XIt)"><g stroke-linecap="round" transform="translate(373.6437315353737 533.9880793376083) rotate(0 37.5 37.5)"><path d="M30.44 2.25 C37.17 0.55, 45.66 1.15, 52.41 4.17 C59.15 7.19, 67.08 14.4, 70.9 20.37 C74.72 26.35, 76.48 32.73, 75.31 40.01 C74.15 47.29, 68.93 58.07, 63.92 64.05 C58.92 70.04, 52.35 74.64, 45.29 75.94 C38.24 77.23, 28.07 74.9, 21.59 71.83 C15.11 68.76, 9.66 64.27, 6.41 57.52 C3.17 50.77, 1.5 38.75, 2.13 31.32 C2.76 23.89, 4.33 18.36, 10.21 12.95 C16.08 7.53, 32.35 1.1, 37.38 -1.18 C42.42 -3.46, 40.75 -1.88, 40.44 -0.73 M14.5 7.1 C19.54 2.14, 29.47 -1.75, 36.42 -2.3 C43.38 -2.86, 49.84 -0.49, 56.22 3.76 C62.6 8.01, 72.11 15.76, 74.69 23.2 C77.26 30.64, 73.94 41.62, 71.66 48.41 C69.38 55.2, 66 59.51, 61 63.96 C55.99 68.42, 48.69 74.15, 41.61 75.14 C34.53 76.13, 24.69 73.89, 18.51 69.89 C12.34 65.9, 6.97 58.63, 4.54 51.16 C2.1 43.7, 2.16 32.71, 3.91 25.12 C5.66 17.54, 13.36 8.36, 15.06 5.67 C16.75 2.99, 14.29 7.81, 14.07 9.02" stroke="none" stroke-width="0" fill="#a5d8ff"></path><path d="M31.6 0.11 C38.57 -1.45, 48.16 2.19, 55.07 5.41 C61.98 8.63, 70.07 13.24, 73.05 19.43 C76.03 25.62, 74.34 34.83, 72.94 42.55 C71.54 50.27, 69.83 60.64, 64.63 65.74 C59.44 70.84, 49.06 72.05, 41.77 73.16 C34.49 74.26, 27.34 75.38, 20.93 72.38 C14.52 69.38, 6.77 61.88, 3.33 55.18 C-0.11 48.48, -1.09 39.76, 0.27 32.19 C1.63 24.63, 4.47 14.87, 11.5 9.77 C18.52 4.68, 36.29 3.13, 42.42 1.64 C48.54 0.15, 48.69 0.17, 48.26 0.85 M8.95 13.45 C12.4 7.68, 16.97 4.03, 24.25 2.16 C31.54 0.29, 45.29 0.25, 52.66 2.22 C60.03 4.19, 64.65 7.7, 68.47 13.97 C72.3 20.25, 75.84 32.59, 75.62 39.86 C75.41 47.14, 71.58 52.17, 67.18 57.64 C62.79 63.12, 56 69.91, 49.24 72.71 C42.48 75.5, 33.99 77.01, 26.63 74.43 C19.26 71.84, 9.73 63.03, 5.05 57.2 C0.37 51.37, -1.89 46.53, -1.45 39.47 C-1 32.41, 5.63 18.49, 7.71 14.84 C9.8 11.19, 10.33 16.83, 11.09 17.56" stroke="#1e1e1e" stroke-width="2" fill="none"></path></g></g><g clip-path="url(#YjE1SmXw_JE61cPw30XIt)"><g transform="translate(247.77121286425722 25.738951318449836) rotate(0 93.47795104980469 17.5)"><text x="0" y="24.528" font-family="Virgil, Segoe UI Emoji" font-size="28px" fill="#1971c2" text-anchor="start" style="white-space: pre;" direction="ltr" dominant-baseline="alphabetic">Hidden Layers</text></g></g><g clip-path="url(#YjE1SmXw_JE61cPw30XIt)"><g transform="translate(533.4350782802953 129.15809906288814) rotate(0 48.78997039794922 35)"><text x="0" y="24.528" font-family="Virgil, Segoe UI Emoji" font-size="28px" fill="#2f9e44" text-anchor="start" style="white-space: pre;" direction="ltr" dominant-baseline="alphabetic">Output</text><text x="0" y="59.528" font-family="Virgil, Segoe UI Emoji" font-size="28px" fill="#2f9e44" text-anchor="start" style="white-space: pre;" direction="ltr" dominant-baseline="alphabetic">Layer</text></g></g><g clip-path="url(#YjE1SmXw_JE61cPw30XIt)"><g transform="translate(226.86792289438313 131.8453844029832) rotate(0 25.366256713867188 11.185051673656744)"><text x="0" y="15.676968425797158" font-family="Virgil, Segoe UI Emoji" font-size="17.896082677850636px" fill="#1971c2" text-anchor="start" style="white-space: pre;" direction="ltr" dominant-baseline="alphabetic">BIASₙ</text></g></g><g clip-path="url(#YjE1SmXw_JE61cPw30XIt)"><g transform="translate(132.79511111264083 157.74494323858107) rotate(334.1316766896299 24.391994732367834 9.046713274686908)"><text x="0" y="12.679873325801285" font-family="Virgil, Segoe UI Emoji" font-size="14.474741239499185px" fill="#1971c2" text-anchor="start" style="white-space: pre;" direction="ltr" dominant-baseline="alphabetic">Weightₙ</text></g></g></svg>