<svg version="1.1" xmlns="http://www.w3.org/2000/svg" viewBox="0 0 659.1824035550912 697.8114977306027" width="659.1824035550912" height="697.8114977306027">
  <!-- svg-source:excalidraw -->
  
  <defs>
    <style class="style-fonts">
      @font-face {
        font-family: "Virgil";
        src: url("https://excalidraw.com/Virgil.woff2");
      }
      @font-face {
        font-family: "Cascadia";
        src: url("https://excalidraw.com/Cascadia.woff2");
      }
      @font-face {
        font-family: "Assistant";
        src: url("https://excalidraw.com/Assistant-Regular.woff2");
      }
    </style>
    <clipPath id="t5Tqv969DSjpYFicUVYwg">
            <rect transform="translate(0 0) rotate(0 329.5912017775456 348.90574886530135)" width="659.1824035550912" height="697.8114977306027">
          </rect>
        </clipPath>
  </defs>
  <g clip-path="url(#t5Tqv969DSjpYFicUVYwg)"><g stroke-linecap="round" transform="translate(7.496855584082823 8.939052497092234) rotate(0 320.46893748631356 340.68313200468106)"><path d="M305.45 1.06 C325.95 -5.72, 350.81 1.43, 373.13 5 C395.46 8.56, 418.45 13.64, 439.39 22.45 C460.33 31.26, 480.42 44.44, 498.79 57.85 C517.16 71.25, 534.53 86.3, 549.61 102.87 C564.7 119.43, 577.28 137.46, 589.29 157.25 C601.31 177.04, 613.83 199.44, 621.7 221.63 C629.56 243.83, 633.37 267.25, 636.49 290.41 C639.62 313.56, 641.74 336.87, 640.44 360.58 C639.14 384.29, 634.76 409.51, 628.68 432.68 C622.61 455.85, 614.11 478.46, 603.99 499.61 C593.88 520.75, 581.94 541.35, 568.01 559.56 C554.09 577.77, 538.08 594.32, 520.45 608.88 C502.82 623.43, 482.53 636.91, 462.24 646.91 C441.96 656.91, 419.98 662.92, 398.76 668.89 C377.53 674.85, 356.98 681.23, 334.88 682.71 C312.79 684.18, 288.34 681.92, 266.2 677.75 C244.07 673.57, 222.32 666.44, 202.09 657.66 C181.86 648.87, 163.06 638.28, 144.84 625.06 C126.63 611.83, 108.36 595.12, 92.8 578.29 C77.24 561.45, 63.49 544.09, 51.49 524.07 C39.49 504.06, 29.03 480.52, 20.79 458.21 C12.55 435.89, 5.29 413.25, 2.06 390.18 C-1.18 367.11, -0.4 343.19, 1.38 319.8 C3.16 296.41, 6.75 272.7, 12.73 249.83 C18.72 226.96, 26.97 203.47, 37.28 182.6 C47.59 161.73, 60.48 142.52, 74.6 124.61 C88.73 106.7, 104.8 90.09, 122.02 75.16 C139.23 60.22, 158.07 45.69, 177.9 34.98 C197.73 24.27, 209.4 16.06, 241 10.91 C272.59 5.77, 336.55 1.5, 367.47 4.1 C398.38 6.71, 427.21 20.7, 426.5 26.53 M509.51 67.79 C529.98 77.24, 546.48 100.33, 561.87 117.83 C577.26 135.33, 591.63 152.46, 601.85 172.79 C612.08 193.12, 616.81 217, 623.22 239.8 C629.63 262.6, 637.31 286.32, 640.29 309.6 C643.27 332.87, 643.72 356.68, 641.12 379.48 C638.51 402.27, 632.19 424.31, 624.65 446.35 C617.1 468.4, 607.48 491.34, 595.83 511.75 C584.18 532.16, 570.11 550.88, 554.74 568.8 C539.36 586.71, 521.41 604.97, 503.6 619.25 C485.79 633.53, 467.6 645.61, 447.89 654.45 C428.18 663.3, 406.83 667.69, 385.34 672.33 C363.85 676.97, 341.17 681.98, 318.94 682.3 C296.71 682.61, 273.63 679.05, 251.97 674.2 C230.31 669.35, 209.18 663.13, 188.98 653.2 C168.78 643.27, 148.7 629.03, 130.77 614.62 C112.85 600.22, 96.01 584.93, 81.44 566.8 C66.87 548.67, 54.9 526.24, 43.37 505.86 C31.83 485.48, 19.11 466.36, 12.24 444.54 C5.36 422.72, 3.4 398.48, 2.12 374.92 C0.83 351.36, 1.63 327.28, 4.52 303.19 C7.42 279.1, 12.79 252.73, 19.5 230.39 C26.21 208.05, 34.2 188.81, 44.77 169.14 C55.33 149.48, 67.6 130.22, 82.87 112.4 C98.13 94.57, 118.33 76.19, 136.35 62.19 C154.36 48.19, 170.53 37.18, 190.95 28.4 C211.36 19.62, 236.35 14.67, 258.83 9.53 C281.31 4.38, 304.18 -1.99, 325.82 -2.48 C347.46 -2.96, 366.92 1.17, 388.65 6.61 C410.38 12.04, 436.19 19.65, 456.21 30.13 C476.23 40.61, 500.46 62.44, 508.79 69.47 C517.11 76.5, 508.71 67.87, 506.14 72.29" stroke="none" stroke-width="0" fill="#ffc9c9"></path><path d="M91.01 103.84 C101.95 84.08, 123.62 69.38, 142.47 56.01 C161.33 42.64, 183.15 32.38, 204.13 23.63 C225.12 14.89, 246.5 7.6, 268.38 3.55 C290.25 -0.49, 313.37 -1.73, 335.39 -0.63 C357.42 0.47, 379.48 4.18, 400.53 10.14 C421.59 16.1, 442.01 24.39, 461.71 35.13 C481.41 45.87, 500.91 60.01, 518.75 74.56 C536.6 89.11, 554.32 104.3, 568.8 122.43 C583.28 140.56, 595.26 162.19, 605.63 183.33 C615.99 204.48, 624.94 226.41, 631.01 249.29 C637.09 272.18, 640.82 297.04, 642.06 320.64 C643.3 344.24, 641.84 367.73, 638.47 390.89 C635.1 414.04, 629.77 437.19, 621.84 459.59 C613.91 481.99, 603.09 505.49, 590.9 525.27 C578.71 545.05, 564.21 561.54, 548.7 578.26 C533.19 594.98, 516.03 612.67, 497.86 625.61 C479.69 638.56, 460.44 647.5, 439.7 655.93 C418.96 664.36, 395.49 672.08, 373.4 676.19 C351.31 680.31, 329.17 681.42, 307.14 680.62 C285.11 679.82, 262.54 676.92, 241.22 671.39 C219.9 665.87, 198.9 657.82, 179.2 647.46 C159.49 637.11, 140.86 623.94, 122.99 609.26 C105.13 594.58, 86.8 577.71, 72.03 559.39 C57.26 541.07, 44.73 520.89, 34.38 499.34 C24.02 477.78, 15.38 453.17, 9.89 430.08 C4.4 406.98, 2.75 384.22, 1.44 360.76 C0.13 337.3, -1.41 312.26, 2.03 289.31 C5.48 266.35, 14.33 244.7, 22.13 223.02 C29.93 201.34, 31.63 184.5, 48.84 159.22 C66.06 133.94, 106.72 89.02, 125.43 71.35 C144.14 53.68, 158.08 48.82, 161.13 53.22 M417.58 19.73 C439.05 21.32, 459.91 32.28, 479.05 43.3 C498.18 54.33, 515.81 69.43, 532.36 85.88 C548.9 102.32, 564.81 122.57, 578.32 141.96 C591.83 161.35, 604.63 180.79, 613.42 202.22 C622.21 223.64, 626.51 247.73, 631.05 270.48 C635.6 293.24, 640.35 315.47, 640.69 338.74 C641.02 362.01, 637.95 386.58, 633.05 410.1 C628.14 433.63, 620.11 458.14, 611.26 479.87 C602.4 501.6, 592.76 521.7, 579.93 540.48 C567.09 559.27, 551.07 576.34, 534.26 592.59 C517.46 608.84, 498.49 625.64, 479.12 637.98 C459.74 650.31, 438.84 659.68, 418.02 666.6 C397.21 673.52, 376.28 676.97, 354.23 679.5 C332.17 682.02, 307.38 684.44, 285.7 681.74 C264.01 679.05, 245.08 671.28, 224.1 663.34 C203.12 655.4, 179.68 645.91, 159.83 634.11 C139.98 622.3, 121.9 607.77, 104.99 592.5 C88.09 577.23, 71.8 561.18, 58.41 542.47 C45.02 523.75, 32.87 502.13, 24.64 480.21 C16.42 458.3, 13.02 434.05, 9.05 410.99 C5.08 387.93, 1.64 365.61, 0.81 341.84 C-0.02 318.07, -0.3 291.44, 4.05 268.37 C8.41 245.31, 17.81 224.85, 26.94 203.46 C36.06 182.06, 45.4 159.63, 58.79 140 C72.19 120.37, 90.83 101.73, 107.31 85.67 C123.8 69.62, 138.6 55.04, 157.7 43.68 C176.8 32.32, 200.56 24.17, 221.92 17.52 C243.29 10.87, 264.09 6.21, 285.9 3.8 C307.71 1.38, 330.4 0.58, 352.78 3.02 C375.16 5.47, 409.26 15.56, 420.17 18.48 C431.08 21.4, 420.34 15.33, 418.22 20.54" stroke="#1e1e1e" stroke-width="2" fill="none"></path></g></g><g clip-path="url(#t5Tqv969DSjpYFicUVYwg)"><g stroke-linecap="round" transform="translate(90.27806402811325 176.96661505812517) rotate(0 236.5255544399709 251.4448586431074)"><path d="M50.19 96.54 C59.01 78.22, 77.28 64.47, 92.79 51.88 C108.3 39.29, 125.29 29.09, 143.26 21.02 C161.23 12.94, 181.65 7.01, 200.59 3.43 C219.53 -0.15, 237.5 -2.45, 256.9 -0.46 C276.3 1.53, 298.17 8.08, 316.96 15.38 C335.75 22.68, 353.23 31.4, 369.64 43.34 C386.05 55.28, 402.72 71.23, 415.4 87 C428.09 102.77, 437.2 119.66, 445.75 137.96 C454.29 156.25, 461.96 176.77, 466.67 196.75 C471.38 216.72, 474.31 236.86, 474 257.82 C473.68 278.78, 470.35 302.13, 464.75 322.5 C459.16 342.86, 450.85 362.34, 440.42 379.99 C429.98 397.64, 415.9 413.78, 402.14 428.39 C388.39 443, 374.66 456.96, 357.91 467.64 C341.15 478.32, 320.57 486.86, 301.61 492.49 C282.66 498.11, 263.69 500.58, 244.18 501.39 C224.66 502.2, 203.78 501.46, 184.54 497.35 C165.29 493.24, 146 485.96, 128.7 476.72 C111.4 467.49, 95.21 455.7, 80.72 441.93 C66.24 428.17, 53.04 411.48, 41.78 394.14 C30.53 376.79, 20.23 357.95, 13.19 337.84 C6.15 317.73, 1.11 294.13, -0.46 273.46 C-2.03 252.8, 0.62 233.96, 3.78 213.85 C6.94 193.74, 8.1 175.66, 18.48 152.81 C28.87 129.95, 54.12 91.81, 66.09 76.7 C78.07 61.6, 87.2 59.44, 90.32 62.19 M399.39 69.07 C415.12 79.99, 427.16 103.17, 437.81 121.54 C448.46 139.92, 457.29 159.38, 463.28 179.34 C469.28 199.3, 473.07 220.44, 473.78 241.31 C474.48 262.17, 471.45 284.17, 467.53 304.53 C463.61 324.9, 458.47 345.05, 450.25 363.48 C442.03 381.91, 431.37 399.35, 418.21 415.09 C405.06 430.83, 387.67 446.23, 371.31 457.91 C354.95 469.59, 338.18 477.85, 320.04 485.16 C301.9 492.47, 281.95 499.41, 262.47 501.79 C242.98 504.18, 222.22 502.19, 203.13 499.47 C184.05 496.76, 166.3 493.46, 147.97 485.5 C129.64 477.55, 109.47 464.42, 93.16 451.72 C76.84 439.01, 61.9 424.99, 50.06 409.27 C38.23 393.55, 29.51 376.58, 22.14 357.39 C14.78 338.19, 9.94 314.84, 5.89 294.08 C1.84 273.32, -3.45 253.31, -2.14 232.81 C-0.84 212.32, 6.46 191.05, 13.7 171.11 C20.94 151.18, 30.59 131.29, 41.29 113.22 C51.99 95.15, 63.89 77.05, 77.91 62.71 C91.94 48.36, 108.49 36.8, 125.46 27.14 C142.42 17.48, 161.01 9.08, 179.72 4.76 C198.42 0.44, 217.83 0.28, 237.71 1.21 C257.59 2.14, 279.44 5.37, 299 10.34 C318.56 15.31, 337.8 20.73, 355.08 31.02 C372.37 41.32, 395.41 64.66, 402.73 72.1 C410.06 79.55, 401.76 72.42, 399.03 75.69" stroke="none" stroke-width="0" fill="#ffec99"></path><path d="M417.19 87.23 C432.56 99.52, 440.96 120.24, 449.63 138.79 C458.3 157.35, 465.31 178.09, 469.19 198.58 C473.08 219.07, 474.25 240.81, 472.94 261.71 C471.64 282.6, 467.25 303.78, 461.37 323.94 C455.5 344.11, 447.42 365.02, 437.69 382.7 C427.96 400.39, 416.7 415.55, 403.01 430.04 C389.32 444.53, 372.43 459.02, 355.53 469.62 C338.63 480.23, 320.39 487.97, 301.62 493.68 C282.84 499.4, 262.62 503.48, 242.88 503.92 C223.14 504.36, 202.39 501.31, 183.2 496.32 C164.01 491.34, 145.27 483.41, 127.74 474 C110.21 464.59, 92.82 453.98, 77.99 439.87 C63.17 425.75, 49.56 406.82, 38.78 389.31 C28 371.8, 19.39 354.61, 13.31 334.81 C7.23 315.01, 4 291.53, 2.3 270.51 C0.6 249.49, 0.01 229.06, 3.11 208.71 C6.22 188.36, 12.78 167.23, 20.94 148.41 C29.1 129.58, 39.69 111.73, 52.08 95.78 C64.46 79.83, 79.43 65.11, 95.25 52.69 C111.06 40.28, 129.35 29.31, 146.97 21.27 C164.59 13.22, 182.19 7.54, 200.96 4.41 C219.74 1.28, 240.2 0.89, 259.61 2.48 C279.03 4.07, 298.62 7, 317.45 13.94 C336.28 20.89, 354.18 29.02, 372.61 44.14 C391.04 59.26, 416.92 90.41, 428.03 104.68 C439.15 118.95, 442.47 126.88, 439.3 129.75 M403.56 71.58 C419.44 83.08, 427.57 104.16, 437.34 121.59 C447.12 139.02, 456.64 155.88, 462.19 176.15 C467.75 196.43, 470.02 222.51, 470.67 243.26 C471.33 264, 470.27 281.03, 466.15 300.63 C462.02 320.24, 454.55 341.55, 445.93 360.88 C437.31 380.2, 426.72 400.49, 414.42 416.58 C402.11 432.67, 388.4 445.64, 372.1 457.43 C355.8 469.21, 335.02 480.32, 316.6 487.29 C298.19 494.26, 280.74 497.36, 261.59 499.25 C242.45 501.14, 221.4 501.2, 201.73 498.63 C182.05 496.07, 161.44 491.74, 143.54 483.88 C125.64 476.02, 109.74 464.33, 94.33 451.47 C78.92 438.6, 63.57 422.53, 51.07 406.69 C38.56 390.85, 27.46 374.91, 19.31 356.43 C11.16 337.96, 5.16 316.74, 2.16 295.84 C-0.85 274.94, -0.35 251.72, 1.27 231.01 C2.9 210.31, 5.12 191.54, 11.92 171.63 C18.71 151.72, 31.12 129.57, 42.07 111.56 C53.02 93.54, 63.7 77.49, 77.61 63.52 C91.52 49.55, 108.6 36.88, 125.54 27.72 C142.49 18.55, 160.54 12.94, 179.27 8.52 C198 4.11, 217.51 1.18, 237.91 1.23 C258.31 1.28, 282.12 3.21, 301.65 8.81 C321.17 14.4, 338.92 24.56, 355.08 34.78 C371.24 44.99, 391.53 63.15, 398.59 70.11 C405.64 77.07, 400.09 73.35, 397.42 76.52" stroke="#1e1e1e" stroke-width="2" fill="none"></path></g></g><g clip-path="url(#t5Tqv969DSjpYFicUVYwg)"><g stroke-linecap="round" transform="translate(167.65295761993298 329.84056222533445) rotate(0 160.0025809446862 170.0950514350434)"><path d="M36.95 59.92 C44.56 45.68, 58.98 36.05, 72.36 26.95 C85.75 17.86, 102.17 10.15, 117.25 5.36 C132.33 0.56, 147.45 -2.29, 162.84 -1.8 C178.24 -1.32, 194.69 2.42, 209.63 8.27 C224.57 14.12, 239.8 23.81, 252.49 33.31 C265.18 42.81, 276.45 52.53, 285.77 65.3 C295.1 78.06, 302.56 93.78, 308.44 109.89 C314.32 126, 320.01 144.74, 321.06 161.96 C322.11 179.18, 318.92 196.9, 314.72 213.19 C310.52 229.48, 303.82 245.61, 295.88 259.7 C287.94 273.79, 278.47 287.15, 267.09 297.74 C255.7 308.33, 241.78 316.3, 227.55 323.25 C213.31 330.21, 197.69 337.28, 181.68 339.47 C165.67 341.65, 146.94 339.27, 131.51 336.37 C116.08 333.46, 102.87 329.11, 89.09 322.03 C75.32 314.95, 60.37 305.26, 48.85 293.89 C37.34 282.52, 27.65 268.94, 20 253.84 C12.36 238.74, 5.99 219.91, 2.98 203.27 C-0.03 186.62, 0.21 170.68, 1.96 153.98 C3.71 137.28, 2.39 124.11, 13.48 103.08 C24.57 82.04, 51.81 42.9, 68.51 27.78 C85.21 12.66, 112.17 9.71, 113.67 12.38 M240.8 20.41 C255.72 26.42, 267.24 41.73, 277.44 53.73 C287.64 65.72, 294.78 78.1, 301.99 92.38 C309.2 106.66, 317.64 122.65, 320.7 139.4 C323.75 156.16, 323.25 175.88, 320.34 192.89 C317.42 209.9, 309.93 226.31, 303.22 241.48 C296.51 256.65, 289.81 271.08, 280.08 283.91 C270.34 296.75, 258.62 310.38, 244.81 318.5 C230.99 326.61, 212.41 329.02, 197.16 332.61 C181.92 336.2, 169.12 340.76, 153.34 340.05 C137.56 339.33, 117.18 334.69, 102.49 328.32 C87.8 321.94, 76.94 311.38, 65.21 301.79 C53.47 292.2, 41.25 284, 32.08 270.76 C22.92 257.51, 15.92 238.24, 10.2 222.34 C4.49 206.43, -1.66 192.22, -2.22 175.33 C-2.77 158.44, 2.14 137.25, 6.87 120.98 C11.61 104.72, 18 91.57, 26.18 77.71 C34.36 63.86, 43.47 49.07, 55.96 37.84 C68.45 26.61, 86.06 16.03, 101.1 10.34 C116.15 4.65, 131.26 4.95, 146.21 3.69 C161.17 2.43, 175.75 -0.6, 190.83 2.77 C205.9 6.14, 229.21 20.71, 236.66 23.91 C244.11 27.11, 236.62 20.27, 235.53 22" stroke="none" stroke-width="0" fill="#a5d8ff"></path><path d="M84.8 21.18 C96.9 10.98, 113.57 4.44, 128.86 1.16 C144.15 -2.13, 160.53 -0.48, 176.53 1.45 C192.54 3.38, 210.03 6.24, 224.9 12.72 C239.78 19.19, 254.12 29.16, 265.78 40.3 C277.43 51.45, 287.02 65.06, 294.84 79.59 C302.65 94.12, 308.18 111.09, 312.67 127.47 C317.17 143.85, 321.99 161.55, 321.8 177.89 C321.62 194.22, 317.39 210.26, 311.58 225.47 C305.77 240.69, 296.68 255.43, 286.94 269.17 C277.2 282.91, 265.59 297.4, 253.15 307.89 C240.71 318.39, 226.52 326.87, 212.31 332.13 C198.11 337.39, 183.76 339.15, 167.91 339.46 C152.05 339.78, 132.57 338.3, 117.17 334.02 C101.76 329.74, 88.22 322.49, 75.48 313.8 C62.75 305.1, 51.03 294.59, 40.76 281.86 C30.49 269.13, 20.15 252.59, 13.85 237.43 C7.56 222.27, 4.58 207.35, 3 190.89 C1.41 174.42, 1.74 155.46, 4.37 138.66 C6.99 121.87, 11.43 104.83, 18.74 90.12 C26.06 75.41, 33.08 64.06, 48.27 50.4 C63.46 36.73, 95.35 15.79, 109.88 8.13 C124.42 0.47, 134.88 1.72, 135.48 4.45 M145.64 2.92 C160.45 -0.62, 178.47 0.64, 194.68 4.13 C210.9 7.61, 229.13 15.28, 242.95 23.84 C256.77 32.4, 267.04 43.71, 277.6 55.47 C288.16 67.23, 299.17 79.41, 306.33 94.4 C313.49 109.38, 318.53 128.79, 320.56 145.39 C322.59 161.99, 321.23 177.55, 318.5 194.02 C315.76 210.49, 310.53 229.26, 304.14 244.2 C297.74 259.14, 290.73 271.78, 280.14 283.67 C269.54 295.57, 254.99 306.87, 240.57 315.56 C226.15 324.25, 209.02 331.65, 193.61 335.8 C178.19 339.96, 163.68 341.94, 148.08 340.52 C132.48 339.1, 114.5 333.66, 100 327.29 C85.5 320.93, 73.21 312.96, 61.09 302.33 C48.96 291.69, 36.24 277.33, 27.25 263.47 C18.26 249.62, 11.23 234.54, 7.15 219.17 C3.08 203.8, 2.62 187.49, 2.81 171.25 C3.01 155, 4.35 138.01, 8.34 121.72 C12.32 105.43, 17.64 87.6, 26.72 73.51 C35.79 59.42, 49.87 47.14, 62.79 37.16 C75.71 27.17, 89.58 19.63, 104.25 13.6 C118.91 7.58, 143.49 3.07, 150.78 1.02 C158.06 -1.03, 148.03 -1.49, 147.95 1.32" stroke="#1e1e1e" stroke-width="2" fill="none"></path></g></g><g clip-path="url(#t5Tqv969DSjpYFicUVYwg)"><g transform="translate(186.26746583563363 91.94359440190965) rotate(0 142.22592163085938 17.5)"><text x="0" y="24.528" font-family="Virgil, Segoe UI Emoji" font-size="28px" fill="#1e1e1e" text-anchor="start" style="white-space: pre;" direction="ltr" dominant-baseline="alphabetic">Artificial Intelligence</text></g></g><g clip-path="url(#t5Tqv969DSjpYFicUVYwg)"><g transform="translate(215.04154420477425 254.44359440190965) rotate(0 112.82594299316406 17.5)"><text x="0" y="24.528" font-family="Virgil, Segoe UI Emoji" font-size="28px" fill="#1e1e1e" text-anchor="start" style="white-space: pre;" direction="ltr" dominant-baseline="alphabetic">Machine Learning</text></g></g><g clip-path="url(#t5Tqv969DSjpYFicUVYwg)"><g transform="translate(239.44152284246957 485.44359440190965) rotate(0 94.69595336914062 17.5)"><text x="0" y="24.528" font-family="Virgil, Segoe UI Emoji" font-size="28px" fill="#1e1e1e" text-anchor="start" style="white-space: pre;" direction="ltr" dominant-baseline="alphabetic">Deep Learning</text></g></g></svg>