<?xml version="1.0" encoding="utf-8"?>
<svg viewBox="0 0 878 964" xmlns="http://www.w3.org/2000/svg">
  <path fill="#ffffff" opacity="1.000000" stroke="none" d="M 117.099 785.934 C 117.094 783.668 117.36 781.85 117.361 780.032 C 117.381 682.967 117.379 585.903 117.371 488.838 C 117.371 487.342 117.257 485.846 117.221 483.447 C 117.174 463.864 117.102 445.182 117.153 426.128 C 117.173 424.982 117.07 424.209 117.106 422.991 C 117.11 417.156 116.973 411.766 116.962 405.93 C 117.004 400.507 116.92 395.529 117.035 390.189 C 117.386 382.722 117.538 375.619 117.69 368.515 C 117.988 367.079 118.286 365.643 118.712 363.528 C 119.536 360.459 120.113 358.025 120.946 355.683 C 129.508 331.619 146.357 316.132 170.358 308.08 C 175.807 307.262 181.256 306.443 187.488 305.476 C 202.958 305.211 217.645 305.094 232.732 305.147 C 234.267 305.183 235.402 305.049 236.982 305.043 C 256.057 305.083 274.687 304.995 293.609 305.073 C 294.76 305.135 295.62 305.03 296.913 305.045 C 316.002 305.071 334.658 304.979 353.764 305.052 C 355.545 305.28 356.875 305.397 358.205 305.397 C 416.003 305.406 473.801 305.409 531.599 305.384 C 533.244 305.383 534.89 305.069 536.977 305.041 C 548.052 305.036 558.687 304.892 569.579 304.897 C 570.358 304.827 570.881 304.608 571.778 304.41 C 579.149 302.827 584.076 298.726 587.246 291.911 C 590.187 284.793 590.432 278.142 585.642 271.624 C 581.542 265.591 576.199 261.634 569.163 261.399 C 558.266 261.036 547.347 261.361 536.262 261.253 C 535.531 261.22 534.974 261.328 533.965 261.309 C 514.485 261.26 495.459 261.337 476.263 261.269 C 475.533 261.222 474.974 261.319 473.96 261.293 C 454.148 261.252 434.789 261.335 415.261 261.273 C 414.532 261.224 413.973 261.319 412.96 261.29 C 393.481 261.249 374.456 261.332 355.262 261.269 C 354.531 261.215 353.969 261.307 352.952 261.284 C 333.811 261.232 315.125 261.298 296.218 261.213 C 295.134 261.17 294.271 261.277 292.952 261.275 C 273.81 261.236 255.125 261.308 236.215 261.234 C 235.129 261.18 234.267 261.272 232.947 261.261 C 213.954 261.432 195.475 261.268 177.891 254.144 C 176.626 253.655 175.362 253.167 173.632 252.267 C 169.469 249.919 165.771 247.982 162.074 246.045 C 160.466 244.795 158.859 243.545 156.725 241.976 C 144.421 232.697 134.626 221.973 128.238 208.556 C 124.837 201.415 122.361 193.833 119.468 186.45 C 117.321 174.781 116.738 163.04 117.889 150.521 C 119.934 142.067 121.949 134.315 123.964 126.562 C 124.255 126.105 124.546 125.647 125.049 124.689 C 128.676 118.292 131.735 112.151 135.58 106.548 C 145.43 92.193 159.112 82.314 174.433 74.502 C 174.742 74.678 175.037 74.656 175.807 74.193 C 183.031 71.851 189.765 69.751 196.498 67.651 C 250.266 67.162 304.033 66.468 357.803 66.24 C 415.776 65.994 473.751 66.186 531.725 66.177 C 533.055 66.176 534.385 66.043 536.079 65.788 C 549.986 65.792 563.53 65.975 577.073 66.173 C 578.891 66.2 580.708 66.302 583.261 66.51 C 588.176 66.972 592.356 67.295 596.94 67.804 C 608.396 70.32 619.552 72.255 630.468 75.108 C 638.935 77.321 647.101 80.682 655.578 83.83 C 676.406 93.274 695.038 105.598 712.314 120.055 C 713.139 120.859 713.964 121.662 715.163 122.802 C 716.136 123.596 716.735 124.053 717.335 124.51 C 718.492 125.77 719.648 127.03 721.261 128.67 C 724.439 131.948 727.169 134.837 729.88 137.745 C 742.959 151.77 753.081 167.865 762.527 184.431 C 762.755 185.076 762.984 185.721 763.464 186.909 C 766.555 193.822 769.394 200.193 772.233 206.564 C 772.82 208.379 773.408 210.193 774.271 212.592 C 777.29 223.588 780.033 234 782.776 244.413 C 782.782 244.977 782.788 245.542 782.908 246.75 C 783.757 252.722 784.491 258.052 785.08 263.632 C 785.093 264.413 785.25 264.943 785.345 265.924 C 785.613 270.393 785.943 274.412 786.128 278.792 C 786.077 282.273 786.172 285.394 786.16 288.921 C 785.854 293.711 785.654 298.095 785.455 302.479 C 785.247 303.608 785.038 304.738 784.759 306.602 C 781.284 322.719 777.878 338.102 774.473 353.485 C 772.853 357.246 771.233 361.007 769.373 365.387 C 760.093 386.479 748.164 405.148 733.903 422.358 C 733.111 423.2 732.32 424.042 731.167 425.301 C 725.692 431.006 720.58 436.294 715.467 441.582 C 714.46 442.312 713.453 443.041 712.04 444.192 C 708.946 446.847 706.274 449.102 703.565 451.312 C 688.771 463.379 672.209 472.575 655.206 481.05 C 652.748 482.015 650.289 482.98 647.262 484.249 C 629.955 488.982 613.216 493.411 596.478 497.84 C 595.635 497.92 594.791 497.999 593.248 498.211 C 586.27 498.799 579.999 499.478 573.713 499.661 C 561.301 500.023 548.88 500.11 536.463 500.311 C 535.576 500.18 534.689 500.05 533.128 499.973 C 513.789 500.127 495.124 500.226 476.459 500.326 C 475.883 500.223 475.307 500.12 474.113 500.027 C 466.064 500.023 458.623 499.795 451.204 500.097 C 448.216 500.219 445.276 501.501 441.995 502.301 C 441.326 503.08 440.975 503.814 440.313 504.712 C 438.662 507.644 436.277 510.372 436.171 513.186 C 435.78 523.576 436.142 533.993 436.221 544.4 C 436.121 544.88 436.021 545.359 435.918 546.632 C 435.995 566.084 436.075 584.742 436.154 603.401 C 436.064 604.194 435.973 604.986 435.898 606.605 C 435.901 620.725 435.838 634.019 435.9 647.312 C 435.926 652.928 436.215 658.542 436.23 664.623 C 436.009 672.698 436.026 680.31 435.856 687.917 C 435.595 699.603 437.191 711.435 433.231 722.845 C 432.811 723.455 432.391 724.065 431.729 725.158 C 427.768 732.579 421.951 737.395 415.439 741.508 C 414.868 741.652 414.296 741.795 413.177 742.197 C 405.892 743.137 399.154 743.82 392.202 744.315 C 391.441 744.074 390.892 744.022 389.987 743.819 C 379.231 740.965 371.817 734.417 366.239 725.503 C 366.05 724.852 365.862 724.201 365.408 723.014 C 364.351 719.769 362.988 717.084 362.867 714.344 C 362.419 704.204 362.41 694.044 362.178 683.892 C 362.03 677.424 361.779 670.958 361.785 664.065 C 361.895 652.268 361.794 640.898 361.693 629.527 C 361.801 620.401 362.003 611.274 361.996 602.147 C 361.986 587.832 361.836 573.517 361.666 558.386 C 361.571 552.768 361.579 547.966 361.535 543.164 C 361.36 523.952 361.168 504.74 360.983 485.529 C 361.069 485.053 361.156 484.577 361.255 483.313 C 361.286 476.498 361.305 470.471 361.516 464.314 C 361.594 463.618 361.478 463.052 361.42 462.082 C 366.075 442.943 378.271 431.737 396.405 426.412 C 398.261 426.127 400.118 425.842 402.435 425.422 C 406.38 425.204 409.864 425.119 413.701 425.159 C 414.537 425.2 415.02 425.116 415.95 425.163 C 435.723 425.205 455.05 425.115 474.624 425.161 C 475.416 425.21 475.959 425.123 476.95 425.166 C 496.05 425.229 514.704 425.161 533.814 425.226 C 540.072 425.398 545.877 425.578 551.674 425.442 C 561.59 425.209 571.5 424.778 581.845 424.5 C 585.971 424.082 589.665 423.594 593.673 423.18 C 594.8 422.995 595.612 422.736 596.83 422.528 C 617.74 418.172 636.741 410.407 653.721 397.37 C 655.014 396.494 655.985 395.66 657.261 394.703 C 666.379 385.273 675.191 375.965 684.277 366.549 C 685.13 365.43 685.709 364.421 686.549 363.25 C 687.435 362.044 688.059 360.999 688.973 359.821 C 689.576 358.935 689.89 358.181 690.433 357.235 C 690.995 356.337 691.33 355.629 691.949 354.791 C 692.53 353.911 692.827 353.162 693.376 352.161 C 695.369 348.312 697.11 344.716 699.112 340.94 C 699.595 339.973 699.817 339.188 700.265 338.117 C 701.288 335.603 702.085 333.374 703.143 330.913 C 703.866 328.913 704.329 327.144 705.018 325.002 C 705.983 320.597 706.722 316.565 707.645 312.267 C 708.16 311.113 708.49 310.226 708.988 309.047 C 709.17 308.311 709.184 307.867 709.424 307.148 C 709.705 305.694 709.758 304.516 709.97 302.998 C 710.16 301.915 710.192 301.172 710.452 300.119 C 710.735 297.989 710.789 296.169 710.975 293.934 C 711.135 291.487 711.163 289.454 711.393 287.103 C 711.466 284.03 711.336 281.276 711.284 278.11 C 711.177 276.328 710.992 274.957 710.967 273.234 C 710.834 271.425 710.541 269.968 710.301 268.115 C 710.177 266.674 710 265.629 709.978 264.254 C 709.818 262.79 709.503 261.658 709.231 260.191 C 709.149 259.43 709.026 259.003 709.041 258.264 C 708.879 257.137 708.581 256.32 708.308 255.169 C 708.19 254.415 708.046 253.996 708.011 253.2 C 707.171 249.717 706.222 246.612 705.284 243.131 C 704.173 239.694 703.052 236.632 702.007 233.268 C 701.69 232.262 701.298 231.557 700.855 230.519 C 700.214 228.976 699.624 227.766 699.095 226.248 C 698.716 225.258 698.275 224.575 697.754 223.556 C 690.857 209.616 682.903 196.815 671.573 186.018 C 670.531 184.858 669.577 184.013 668.469 182.876 C 664.657 179.554 660.998 176.522 657.324 173.161 C 656.047 171.986 654.783 171.14 653.345 170.012 C 636.091 157.186 617.374 148.324 596.142 144.259 C 593.692 143.65 591.518 143.275 588.989 142.783 C 587.892 142.63 587.149 142.595 586.103 142.377 C 584.636 142.13 583.473 142.066 581.894 141.875 C 579.453 141.683 577.427 141.617 575.034 141.375 C 570.509 141.015 566.35 140.673 562.191 140.671 C 474.887 140.64 387.584 140.644 300.28 140.665 C 297.962 140.665 295.645 140.922 292.877 140.951 C 273.794 140.913 255.162 140.983 236.144 140.912 C 234.951 140.857 234.145 140.944 232.885 140.932 C 226.281 140.826 220.123 140.633 213.98 140.854 C 202.458 141.269 192.82 150.257 191.746 161.309 C 190.631 172.79 197.959 182.781 209.756 185.697 C 212.057 186.158 214.038 186.517 216.02 186.518 C 281.683 186.543 347.345 186.42 413.008 186.565 C 468.82 186.687 524.632 187.112 580.83 187.5 C 585.608 188.502 590.001 189.407 594.658 190.493 C 595.334 190.761 595.744 190.849 596.448 191.134 C 600.601 192.835 604.572 194.106 608.301 195.884 C 627.019 204.808 641.27 218.58 651.716 236.749 C 653.243 240.413 655.308 243.584 656.212 247.058 C 658.918 257.451 661.17 267.962 663.52 278.859 C 663.555 281.323 663.67 283.355 663.609 285.779 C 663.534 287.296 663.635 288.421 663.62 289.861 C 663.534 290.618 663.563 291.061 663.4 291.74 C 663.196 293.161 663.183 294.345 663.03 295.838 C 662.775 297.262 662.659 298.378 662.335 299.682 C 662.075 300.763 662.024 301.655 661.827 302.816 C 661.689 303.489 661.698 303.893 661.492 304.45 C 661.218 305.272 661.159 305.94 660.878 306.951 C 659.613 310.692 658.569 314.092 657.253 317.708 C 655.084 322.085 653.188 326.246 651.023 330.606 C 643.286 343.489 633.122 353.643 620.962 362.327 C 618.981 363.58 617.325 364.738 615.338 365.963 C 611.169 367.997 607.332 369.964 603.188 371.883 C 602.174 372.235 601.468 372.636 600.453 373.061 C 599.594 373.366 599.046 373.647 598.156 373.889 C 596.358 374.445 594.903 375.039 593.107 375.596 C 592.348 375.724 591.929 375.89 591.159 375.981 C 589.027 376.48 587.247 377.055 585.129 377.595 C 584.36 377.69 583.93 377.82 583.184 377.851 C 582.063 378.023 581.256 378.294 580.049 378.522 C 578.603 378.696 577.559 378.913 576.211 379.004 C 575.092 379.121 574.277 379.365 572.995 379.541 C 560.525 379.674 548.521 379.875 536.13 379.945 C 534.94 379.883 534.137 379.953 532.882 379.921 C 513.793 379.913 495.156 380.006 476.159 379.968 C 475.307 379.926 474.813 380.014 473.876 379.967 C 454.129 379.922 434.824 380.013 415.162 379.972 C 414.309 379.925 413.815 380.011 412.878 379.961 C 404.46 379.912 396.484 379.998 388.206 379.955 C 387.031 380.35 386.159 380.874 384.854 381.351 C 373.937 381.748 363.976 383.966 355.116 389.925 C 354.313 390.229 353.51 390.532 352.217 391.196 C 339.094 399.438 329.015 409.648 322.748 423.334 C 322.368 423.892 321.989 424.449 321.453 425.59 C 320.033 429.613 318.77 433.051 317.279 436.679 C 317.006 437.43 316.96 437.991 316.726 438.84 C 316.514 439.578 316.49 440.029 316.229 440.717 C 315.919 441.814 315.845 442.673 315.612 443.833 C 315.455 444.582 315.456 445.03 315.237 445.759 C 314.965 447.208 314.912 448.376 314.698 449.983 C 314.588 461.421 314.638 472.42 314.689 483.42 C 314.6 483.891 314.512 484.363 314.409 485.621 C 314.5 505.744 314.604 525.082 314.708 544.419 C 314.605 544.89 314.502 545.36 314.397 546.619 C 314.474 566.082 314.553 584.756 314.632 603.43 C 314.543 604.209 314.455 604.988 314.38 606.589 C 314.495 626.161 314.598 644.91 314.7 663.659 C 314.574 664.436 314.449 665.214 314.357 666.702 C 314.485 686.083 314.579 704.752 314.538 723.765 C 314.504 724.579 314.604 725.05 314.558 725.966 C 314.504 745.413 314.597 764.416 314.691 783.42 C 314.602 783.891 314.513 784.363 314.411 785.621 C 314.501 805.411 314.604 824.415 314.707 843.419 C 314.603 843.89 314.499 844.36 314.394 845.619 C 314.472 865.083 314.552 883.756 314.632 902.43 C 314.532 903.203 314.432 903.976 314.321 905.439 C 314.356 906.578 314.403 907.027 314.251 907.768 C 313.982 909.221 313.912 910.381 313.673 911.837 C 313.483 912.579 313.463 913.026 313.194 913.706 C 312.544 915.469 312.142 916.999 311.521 918.81 C 308.255 926.526 302.676 931.8 296.442 936.514 C 294.985 937.143 293.528 937.771 291.491 938.697 C 288.778 939.727 286.645 940.46 284.253 941.067 C 283.474 941.131 282.955 941.322 281.979 941.46 C 278.153 941.44 274.784 941.472 271.205 941.304 C 270.439 941.126 269.883 941.149 268.982 940.977 C 257.895 938.166 250.023 931.709 244.236 922.191 C 243.8 921.18 243.33 920.489 242.811 919.454 C 242.169 917.587 241.577 916.063 241.09 914.26 C 240.924 913.481 240.653 912.981 240.424 912.103 C 240.29 910.992 240.113 910.26 239.936 909.528 C 239.92 868.423 239.897 827.319 239.891 786.215 C 239.888 763.581 239.923 740.947 239.924 718.312 C 239.929 642.397 239.939 566.481 239.919 490.565 C 239.911 461.44 239.825 432.316 239.65 402.474 C 239.054 399.885 238.583 398.013 238.112 396.142 C 237.207 394.185 236.302 392.228 234.984 389.805 C 231.077 384.427 226.349 381.512 220.201 380.352 C 219.445 380.132 218.888 380.13 217.936 379.985 C 204.626 379.71 195.087 386.843 192.341 398.744 C 192.076 399.84 192.052 400.699 191.889 402.001 C 191.855 409.428 191.96 416.412 192.065 423.395 C 191.93 424.19 191.795 424.985 191.7 426.606 C 191.727 432.389 191.67 437.348 191.708 442.306 C 191.813 456.004 191.958 469.701 192.087 483.399 C 191.984 483.882 191.882 484.364 191.766 485.63 C 191.83 505.411 191.908 524.409 191.985 543.408 C 191.906 544.201 191.828 544.994 191.75 546.602 C 191.839 566.079 191.928 584.743 192.017 603.406 C 191.916 604.2 191.816 604.993 191.731 606.605 C 191.844 626.083 191.942 644.742 192.04 663.401 C 191.924 664.195 191.807 664.988 191.717 666.604 C 191.853 686.083 191.962 704.742 192.071 723.4 C 191.934 724.194 191.797 724.987 191.7 726.606 C 191.727 732.389 191.67 737.348 191.708 742.306 C 191.814 756.003 191.959 769.701 192.088 783.399 C 191.985 783.882 191.882 784.364 191.766 785.63 C 191.674 798.439 191.596 810.465 191.3 822.692 C 191.096 823.451 191.108 824.01 190.915 824.904 C 187.936 830.623 185.162 836.008 182.388 841.392 C 181.259 842.409 180.13 843.426 178.614 844.821 C 177.533 845.773 176.839 846.347 176.145 846.921 C 175.159 847.436 174.174 847.951 172.663 848.84 C 157.268 856.423 143.286 854.551 130.044 845.102 C 129.658 844.619 129.273 844.137 128.496 843.258 C 122.652 837.433 119.561 830.723 117.549 823.426 C 117.448 811.078 117.347 798.729 117.099 785.934 Z"/>
</svg>